<?xml version="1.0" encoding="UTF-8"?>
<svg id="_Слой_2" data-name="Слой 2" xmlns="http://www.w3.org/2000/svg" xmlns:xlink="http://www.w3.org/1999/xlink" viewBox="0 0 38.64 24.4">
  <defs>
    <style>
      .cls-1 {
        clip-path: url(#clippath);
      }

      .cls-2, .cls-3, .cls-4, .cls-5, .cls-6 {
        stroke-width: 0px;
      }

      .cls-2, .cls-7 {
        fill: none;
      }

      .cls-8 {
        fill: #e8eef2;
        stroke: #000;
      }

      .cls-8, .cls-7 {
        stroke-miterlimit: 10;
        stroke-width: .25px;
      }

      .cls-3 {
        fill: #643877;
      }

      .cls-4 {
        fill: #3b464b;
      }

      .cls-5 {
        fill: #33b7bc;
      }

      .cls-6 {
        fill: #fffcd4;
      }

      .cls-7 {
        stroke: #ffd900;
      }
    </style>
    <clipPath id="clippath">
      <rect class="cls-2" width="38.64" height="24.4" rx="1.4" ry="1.4"/>
    </clipPath>
  </defs>
  <g id="_Слой_1-2" data-name="Слой 1">
    <g class="cls-1">
      <rect class="cls-5" width="38.64" height="24.4"/>
      <rect class="cls-3" width="38.64" height="4.02"/>
      <rect class="cls-3" y="20.42" width="38.64" height="4.02"/>
      <line class="cls-7" y1="1.73" x2="38.64" y2="1.73"/>
      <line class="cls-7" y1="22.96" x2="38.64" y2="22.96"/>
      <g>
        <g>
          <path class="cls-4" d="M5,35.44c-.89,0-1.63-.7-1.68-1.59l-.83-16.16c-.02-.45.13-.88.43-1.21.3-.33.71-.53,1.16-.55,0,0,29.47-1.52,29.47-1.52.98,0,1.71.7,1.76,1.59l.83,16.16c.05.92-.67,1.71-1.59,1.76l-29.55,1.52Z"/>
          <path class="cls-6" d="M33.64,14.66c.76,0,1.39.59,1.43,1.36l.83,16.16c.04.79-.57,1.46-1.35,1.5l-29.47,1.52s-.05,0-.07,0c-.76,0-1.39-.59-1.43-1.36l-.83-16.16c-.04-.79.57-1.46,1.35-1.5l29.47-1.52s.05,0,.07,0M33.64,14.16s-.07,0-.1,0l-29.47,1.52c-.51.03-.99.25-1.33.63s-.52.88-.49,1.39l.83,16.16c.05,1.03.9,1.83,1.93,1.83.03,0,.07,0,.1,0l29.47-1.52c.51-.03.99-.25,1.33-.63.35-.38.52-.88.49-1.39l-.83-16.16c-.05-1.03-.9-1.83-1.93-1.83h0Z"/>
        </g>
        <rect class="cls-8" x="4.37" y="16.69" width="29.89" height="16.48" rx=".56" ry=".56" transform="translate(-1.26 1.03) rotate(-2.95)"/>
      </g>
      <g>
        <g>
          <path class="cls-4" d="M5,10.52c-.89,0-1.63-.7-1.68-1.59l-.83-16.16c-.02-.45.13-.88.43-1.21.3-.33.71-.53,1.16-.55,0,0,29.47-1.52,29.47-1.52.98,0,1.71.7,1.76,1.59l.83,16.16c.05.92-.67,1.71-1.59,1.76l-29.55,1.52Z"/>
          <path class="cls-6" d="M33.64-10.27c.76,0,1.39.59,1.43,1.36l.83,16.16c.04.79-.57,1.46-1.35,1.5l-29.47,1.52s-.05,0-.07,0c-.76,0-1.39-.59-1.43-1.36l-.83-16.16c-.04-.79.57-1.46,1.35-1.5l29.47-1.52s.05,0,.07,0M33.64-10.77s-.07,0-.1,0l-29.47,1.52c-.51.03-.99.25-1.33.63s-.52.88-.49,1.39l.83,16.16c.05,1.03.9,1.83,1.93,1.83.03,0,.07,0,.1,0l29.47-1.52c1.06-.05,1.88-.96,1.83-2.03l-.83-16.16c-.05-1.03-.9-1.83-1.93-1.83h0Z"/>
        </g>
        <rect class="cls-8" x="4.37" y="-8.24" width="29.89" height="16.48" rx=".56" ry=".56" transform="translate(.03 .99) rotate(-2.95)"/>
      </g>
    </g>
  </g>
</svg>