<?xml version="1.0" encoding="UTF-8"?>
<svg xmlns="http://www.w3.org/2000/svg" xmlns:xlink="http://www.w3.org/1999/xlink" viewBox="0 0 64.21 152.94">
  <defs>
    <style>
      .cls-1 {
        clip-path: url(#clippath);
      }

      .cls-2 {
        fill: none;
      }

      .cls-2, .cls-3, .cls-4, .cls-5, .cls-6, .cls-7, .cls-8, .cls-9, .cls-10, .cls-11, .cls-12, .cls-13, .cls-14, .cls-15 {
        stroke-width: 0px;
      }

      .cls-16 {
        clip-path: url(#clippath-1);
      }

      .cls-17 {
        clip-path: url(#clippath-4);
      }

      .cls-18 {
        clip-path: url(#clippath-3);
      }

      .cls-19 {
        clip-path: url(#clippath-2);
      }

      .cls-20 {
        clip-path: url(#clippath-7);
      }

      .cls-21 {
        clip-path: url(#clippath-6);
      }

      .cls-22 {
        clip-path: url(#clippath-5);
      }

      .cls-23 {
        opacity: .97;
      }

      .cls-24 {
        isolation: isolate;
      }

      .cls-3 {
        fill: #633876;
      }

      .cls-4 {
        fill: #643877;
      }

      .cls-5 {
        fill: #2d6d6e;
      }

      .cls-6 {
        fill: #41224b;
      }

      .cls-7 {
        fill: #1d1d1b;
      }

      .cls-8 {
        fill: #e5007e;
      }

      .cls-9 {
        fill: #d3ebec;
      }

      .cls-10 {
        fill: #2fb6bc;
      }

      .cls-11 {
        fill: #9f948c;
      }

      .cls-12 {
        fill: #fdebdb;
      }

      .cls-13 {
        fill: #fff;
      }

      .cls-14 {
        fill: #fd0;
      }

      .cls-15 {
        fill: #ffd900;
      }

      .cls-25 {
        mix-blend-mode: multiply;
        opacity: .7;
      }
    </style>
    <clipPath id="clippath">
      <rect class="cls-2" x="16.86" y="8.26" width="9.03" height="9.89"/>
    </clipPath>
    <clipPath id="clippath-1">
      <rect class="cls-2" x="16.86" y="8.26" width="9.03" height="9.89"/>
    </clipPath>
    <clipPath id="clippath-2">
      <rect class="cls-2" x="25.42" y="7.27" width="8.06" height="9.76"/>
    </clipPath>
    <clipPath id="clippath-3">
      <rect class="cls-2" x="25.42" y="7.27" width="8.06" height="9.76"/>
    </clipPath>
    <clipPath id="clippath-4">
      <rect class="cls-2" x="43.61" y="15.65" width="5.15" height="14.28"/>
    </clipPath>
    <clipPath id="clippath-5">
      <rect class="cls-2" x="43.61" y="15.65" width="5.15" height="14.28"/>
    </clipPath>
    <clipPath id="clippath-6">
      <rect class="cls-2" x="19.75" y="18.49" width="24.48" height="12.28"/>
    </clipPath>
    <clipPath id="clippath-7">
      <rect class="cls-2" x="19.75" y="18.49" width="24.48" height="12.28"/>
    </clipPath>
  </defs>
  <g class="cls-24">
    <g id="_Слой_2" data-name="Слой 2">
      <g id="_Слой_1-2" data-name="Слой 1">
        <g>
          <g>
            <path class="cls-14" d="M64.21,16.7V1.4c0-.81-.68-1.45-1.49-1.4L2.14,3.58c-.74.04-1.32.66-1.32,1.4v11.72c0,.78.63,1.4,1.4,1.4h8.86c.78,0,1.4.63,1.4,1.4v124.39c0,.78-.63,1.4-1.4,1.4H1.41c-.87,0-1.56.79-1.39,1.64.5,2.42,2.27,4.62,3.09,5.54.26.29.64.46,1.04.46h56.05c.3,0,.6-.09.84-.27.6-.47,1.68-1.64,2.33-4.31.2-.44.37-.88.49-1.29.25-.89-.44-1.76-1.36-1.76h-8.97c-.78,0-1.4-.63-1.4-1.4V19.51c0-.78.63-1.4,1.4-1.4h9.28c.78,0,1.4-.63,1.4-1.4Z"/>
            <g>
              <g>
                <path class="cls-10" d="M38.47,14.36c.14-.05.29-.03.41.07l11.8,9.6c.25.2.17.59-.13.7l-22.31,5.79c-.37.1-.67-.3-.45-.62l10.48-15.37c.05-.08.13-.13.21-.16"/>
                <path class="cls-5" d="M50.82,24.27s0,.02,0,.03c0,.01,0,.03,0,.04,0,.02,0,.03,0,.05,0,.01,0,.03,0,.04,0,0,0,.01,0,.02,0,.02-.01.04-.02.06,0,0,0,0,0,0-.01.02-.02.04-.04.06,0,0,0,0-.01.01-.01.02-.03.03-.05.05,0,0,0,0,0,0-.02.02-.04.03-.06.04,0,0-.01,0-.02,0-.02.01-.05.02-.07.03l-22.31,5.79c-.23.06-.43-.07-.5-.26l.11.32c.07.18.27.32.5.26l22.31-5.79s.05-.02.07-.03c0,0,.01,0,.02,0,.02-.01.04-.03.06-.04,0,0,0,0,0,0,.02-.02.03-.03.05-.05,0,0,0,0,.01-.01.01-.02.03-.04.04-.06,0,0,0,0,0,0,0-.02.02-.04.02-.06,0,0,0-.01,0-.02,0,0,0,0,0-.01,0,0,0-.02,0-.03,0-.02,0-.03,0-.05,0,0,0,0,0-.01,0-.01,0-.02,0-.03,0-.01,0-.02,0-.03,0,0,0,0,0,0,0-.02,0-.04-.02-.06l-.11-.32s.01.05.02.07"/>
              </g>
              <g>
                <polygon class="cls-8" points="46.9 12.48 47.92 10.38 48.9 10.81 46.9 12.48"/>
                <polygon class="cls-10" points="47.88 12.45 50.56 10.54 51.25 11.66 47.88 12.45"/>
              </g>
              <g>
                <path class="cls-3" d="M14.86,13.47l20.26-3.06c.33-.05.58.38.39.68l-9.71,14.89c-.05.07-.11.12-.19.14-.13.04-.28,0-.38-.12l-10.49-11.84c-.21-.24-.13-.61.13-.69"/>
                <path class="cls-6" d="M35.57,10.85s0,.05,0,.07c0,0,0,.01,0,.02,0,.02,0,.04-.02.06,0,0,0,.01,0,.02,0,.02-.02.05-.04.07l-9.71,14.89c-.05.07-.11.12-.19.14-.13.04-.28,0-.38-.12l-10.49-11.84c-.08-.09-.12-.2-.12-.31v.55c0,.11.04.22.12.31l10.49,11.84c.11.12.25.16.38.12.07-.02.14-.07.19-.14l9.71-14.89s.03-.05.04-.07c0,0,0-.01,0-.02,0-.02.01-.04.02-.06,0,0,0,0,0-.01,0,0,0,0,0,0,0-.02,0-.05,0-.07v-.55Z"/>
              </g>
              <g>
                <g class="cls-25">
                  <g class="cls-1">
                    <g class="cls-16">
                      <polygon class="cls-7" points="21.21 8.72 21.62 11.79 20.81 11.89 20.4 8.83 16.86 9.31 18.04 18.15 21.58 17.68 21.17 14.6 21.98 14.5 22.39 17.57 25.9 17.1 24.72 8.26 21.21 8.72"/>
                    </g>
                  </g>
                </g>
                <g class="cls-25">
                  <g class="cls-19">
                    <g class="cls-18">
                      <polygon class="cls-7" points="33.12 13.4 29.71 13.86 29.66 13.49 31.98 13.18 31.62 10.47 29.3 10.78 29.25 10.42 32.66 9.97 32.3 7.27 25.42 8.19 26.6 17.03 33.48 16.11 33.12 13.4"/>
                    </g>
                  </g>
                </g>
                <polygon class="cls-10" points="21.41 8.41 21.82 11.47 21.01 11.58 20.6 8.52 17.06 8.99 18.24 17.84 21.78 17.36 21.37 14.29 22.18 14.18 22.59 17.25 26.09 16.79 24.91 7.94 21.41 8.41"/>
                <polygon class="cls-10" points="33.31 13.09 29.91 13.54 29.86 13.18 32.18 12.87 31.82 10.16 29.5 10.47 29.45 10.11 32.86 9.65 32.5 6.96 25.62 7.87 26.8 16.72 33.68 15.8 33.31 13.09"/>
                <path class="cls-13" d="M18.61,17.36v-.11s-1.07-7.9-1.07-7.9l2.7-.36.41,3.06,1.65-.22-.41-3.06,2.66-.35v.11s1.07,7.89,1.07,7.89l-2.66.35-.41-3.07-1.65.22.41,3.07-2.7.36ZM17.78,9.54l1.01,7.58,2.28-.3-.41-3.07,2.08-.28.41,3.07,2.24-.3-1.01-7.58-2.24.3.41,3.06-2.07.28-.41-3.06-2.28.3Z"/>
                <path class="cls-13" d="M27.16,16.24v-.11s-1.07-7.89-1.07-7.89h.11s5.93-.8,5.93-.8l.25,1.86-3.41.46.16,1.2,2.33-.31.25,1.87-2.33.31.16,1.2,3.41-.46.25,1.87h-.11s-5.93.8-5.93.8ZM26.34,8.42l1.01,7.58,5.61-.75-.19-1.45-3.41.46-.22-1.63,2.33-.31-.19-1.45-2.33.31-.22-1.63,3.41-.46-.19-1.43-5.61.75Z"/>
              </g>
              <g>
                <polygon class="cls-12" points="34.41 16.11 44.34 16.94 44.1 10.72 34.32 9.67 34.41 16.11"/>
                <polygon class="cls-11" points="34.41 16.11 34.37 13.82 34.35 11.9 34.32 9.67 33.78 10.11 33.81 12.34 33.83 14.26 33.87 16.55 43.8 17.38 44.34 16.94 34.41 16.11"/>
                <polygon class="cls-6" points="37.84 12.01 37.56 12.23 38.37 12.3 38.65 12.07 37.84 12.01"/>
                <polygon class="cls-6" points="36.86 11.93 36.06 11.86 36.12 11.04 35.84 11.26 35.78 12.09 36.58 12.15 36.35 15.08 37.33 15.16 37.61 14.94 36.63 14.86 36.86 11.93"/>
                <polygon class="cls-3" points="38.71 11.25 38.65 12.07 37.84 12.01 37.61 14.94 36.63 14.86 36.86 11.93 36.06 11.86 36.12 11.04 38.71 11.25"/>
                <path class="cls-6" d="M40.85,11.39c-.05,0-.11,0-.16,0-.94.04-1.72.88-1.77,1.95-.03.55.14,1.07.46,1.47.32.4.77.64,1.26.66,1.01.06,1.88-.81,1.94-1.94.03-.55-.14-1.07-.46-1.48-.33-.4-.77-.64-1.26-.67M41.55,13.48c-.03.58-.42.88-.79.9-.02,0-.05,0-.07,0-.21-.01-.4-.11-.54-.28-.11-.13-.24-.36-.22-.71.03-.62.47-.93.86-.9.2.01.4.11.54.28.11.13.24.36.22.71"/>
                <path class="cls-3" d="M41.1,11.43c-.05,0-.1,0-.15,0-.91.04-1.67.83-1.72,1.85-.03.52.13,1.02.45,1.4.31.38.75.6,1.22.63.98.05,1.82-.77,1.88-1.84.03-.52-.13-1.02-.45-1.4-.32-.38-.75-.61-1.22-.63M41.79,13.42c-.03.55-.41.84-.77.85-.02,0-.04,0-.07,0-.2-.01-.39-.11-.53-.26-.11-.12-.23-.34-.21-.67.03-.58.45-.88.83-.86.2.01.39.11.53.26.11.12.23.34.21.68"/>
              </g>
              <g>
                <polygon class="cls-8" points="18.86 24.32 17.7 26.34 16.76 25.85 18.86 24.32"/>
                <polygon class="cls-3" points="17.88 24.29 15.08 26.02 14.47 24.86 17.88 24.29"/>
              </g>
              <g>
                <g class="cls-23">
                  <g class="cls-17">
                    <g class="cls-22">
                      <path class="cls-6" d="M48.76,16.31l-2.41,9.77c-.03.11-.14.18-.25.16l-1.22-.23c-.11-.02-.19-.12-.17-.23l1.45-9.95c.02-.12.13-.2.25-.18l2.18.41c.12.02.2.14.17.25M46.32,27.61l-.43,2.15c-.02.11-.14.19-.25.17l-1.85-.35c-.12-.02-.19-.13-.17-.24l.43-2.15c.02-.11.14-.19.25-.16l1.85.35c.12.02.19.13.17.24"/>
                    </g>
                  </g>
                </g>
                <path class="cls-3" d="M49.07,16.14l-2.41,9.77c-.03.11-.14.18-.25.16l-1.22-.23c-.11-.02-.19-.12-.17-.23l1.45-9.95c.02-.12.13-.2.25-.18l2.18.41c.12.02.2.14.17.25M46.63,27.44l-.43,2.15c-.02.11-.14.19-.25.16l-1.85-.35c-.12-.02-.19-.13-.17-.24l.43-2.15c.02-.11.14-.19.25-.16l1.85.35c.12.02.19.13.17.24"/>
              </g>
              <g>
                <g class="cls-25">
                  <g class="cls-21">
                    <g class="cls-20">
                      <path class="cls-7" d="M25.23,29.11l-2.89-4.57s-.03-.09-.01-.13l2.29-5.45c.04-.09-.03-.19-.13-.19h-1.17c-.06,0-.11.04-.13.09l-1.57,4.09c-.06.14-.27.1-.27-.05v-3.99c.01-.08-.05-.14-.13-.14h-1.09c-.08,0-.14.06-.14.14l-.02,11.5c0,.09.09.16.18.13l1.07-.33c.06-.02.1-.07.1-.13v-4.07c.01-.14.2-.19.27-.07.66,1.13,1.86,3.18,2.13,3.63.03.05.09.08.15.06l1.27-.31c.09-.02.14-.13.09-.21"/>
                      <path class="cls-7" d="M20.12,30.77c-.08,0-.15-.02-.22-.07-.09-.07-.15-.18-.15-.29l.02-11.5c0-.2.16-.36.36-.36h1.09c.1,0,.19.04.26.11.07.07.11.16.1.26v3.54s1.4-3.67,1.4-3.67c.05-.14.19-.23.34-.23h1.17c.12,0,.23.06.3.16.07.1.08.23.03.34l-2.27,5.41,2.86,4.54c.06.1.07.22.03.33-.04.11-.14.19-.25.22l-1.27.3c-.15.04-.31-.03-.39-.17-.25-.42-1.3-2.21-1.98-3.37v3.78c-.01.16-.11.29-.26.34l-1.07.33s-.07.02-.1.02ZM20.22,18.99l-.02,11.31.91-.28v-4.02c.01-.17.12-.3.28-.35.16-.04.32.02.41.17.64,1.1,1.78,3.04,2.09,3.57l1.1-.26-2.83-4.48c-.06-.1-.07-.22-.03-.33l2.24-5.34h-.99l-1.55,4.04c-.06.17-.23.25-.4.23-.17-.03-.29-.18-.29-.36v-3.91s-.91,0-.91,0ZM23.82,29.41h0,0ZM21.14,18.91h0s0,0,0,0ZM24.42,18.88h0s0,0,0,0Z"/>
                      <path class="cls-7" d="M31.26,28.59v-9.64c0-.08-.06-.14-.13-.14h-.87c-.06,0-.11.04-.13.09l-2.02,5.96c-.05.15-.27.11-.27-.05l.02-5.87c0-.08-.06-.14-.14-.14h-1.09c-.08,0-.14.06-.14.14l-.05,9.92c0,.08.07.15.16.14l.98-.13c.05,0,.09-.04.11-.09.18-.51,1.22-3.35,1.93-5.33.05-.15.28-.1.27.06h0s0,.02,0,.02v5.06c0,.08.05.14.13.14h1.1c.08,0,.14-.06.14-.14"/>
                      <path class="cls-7" d="M26.59,29.22c-.09,0-.17-.03-.24-.09-.08-.07-.12-.17-.12-.27l.05-9.92c0-.2.16-.36.36-.36h1.09c.1,0,.19.04.26.11.07.07.1.16.1.26l-.02,5.37,1.86-5.48c.05-.15.18-.24.34-.24h.87c.2,0,.36.16.36.36v9.64c0,.2-.17.36-.37.36h-1.1c-.2,0-.36-.16-.36-.36v-4.61c-.69,1.93-1.59,4.41-1.76,4.88-.05.13-.16.22-.29.23l-.98.13s-.03,0-.05,0ZM26.71,19.03l-.05,9.74.84-.11c.22-.62,1.22-3.36,1.91-5.28.06-.17.24-.26.41-.23.18.04.3.2.29.38v4.98s.93,0,.93,0v-9.48s-.72,0-.72,0l-2,5.9c-.06.17-.22.27-.4.24-.18-.03-.3-.18-.3-.36l.02-5.79h-.92ZM30.34,18.97h0s0,0,0,0ZM27.64,18.94h0s0,0,0,0ZM26.71,18.94h0s0,0,0,0Z"/>
                      <path class="cls-7" d="M37.6,29.07l-.06-10.12c0-.08-.06-.14-.14-.14h-1.09c-.08,0-.14.06-.14.14l.02,4.21c0,.08-.07.14-.15.14-.53-.03-1.06-.06-1.59-.09-.07,0-.13-.06-.13-.14v-4.12c-.01-.08-.08-.14-.15-.14h-1.09c-.08,0-.14.06-.14.14l.03,9.64c0,.07.06.13.13.14l1.1.07c.08,0,.15-.06.15-.14v-4.27c-.02-.08.05-.14.13-.14.53.03,1.07.06,1.6.1.07,0,.13.07.13.14l.02,4.32c0,.06.04.12.11.14l1.09.26c.09.02.17-.05.17-.14"/>
                      <path class="cls-7" d="M37.46,29.43s-.05,0-.08,0l-1.09-.26c-.16-.04-.28-.18-.28-.35l-.02-4.24c-.48-.03-.96-.06-1.43-.09v4.19c.01.1-.03.2-.1.26-.07.07-.17.1-.27.1l-1.1-.08c-.19-.01-.34-.17-.34-.36l-.03-9.64c0-.2.16-.36.36-.36h1.09c.2,0,.36.16.36.36v4.04c.49.02.97.05,1.45.08l-.02-4.12c0-.1.04-.19.1-.26.07-.07.16-.11.26-.11h1.09c.2,0,.36.16.36.36l.06,10.12c0,.11-.05.21-.14.28-.06.05-.14.08-.22.08ZM36.45,28.75l.93.22-.06-9.94h-.92l.02,4.13c0,.1-.04.19-.11.26-.07.07-.15.1-.27.1-.53-.03-1.06-.06-1.59-.09-.19,0-.34-.17-.34-.36v-4.04h-.94l.03,9.49.93.06v-4.19c-.02-.1.02-.19.1-.26.07-.07.16-.1.27-.1.53.03,1.07.06,1.61.1.19.01.33.17.33.36l.02,4.26ZM36.06,24.58h0,0ZM35.98,24.49h0s0,0,0,0ZM34.55,24.39h0s0,0,0,0ZM35.97,23.16h0s0,0,0,0ZM34.46,22.99h0,0ZM37.32,18.95h0s0,0,0,0ZM36.39,18.95h0s0,0,0,0Z"/>
                      <path class="cls-7" d="M44.01,20.98c0-.69-.2-1.25-.6-1.65-.4-.41-1-.61-1.83-.61-.71,0-1.29.16-1.73.49-.45.34-.68.87-.67,1.56l.05,6.9c0,.61.2,1.15.59,1.6.38.44.95.77,1.76.99.36.1.68.15.97.15.3,0,.56-.06.78-.18.46-.24.7-.77.7-1.56v-7.7ZM42.67,28.51c0,.29-.07.5-.22.61-.14.11-.4.12-.76.02-.34-.09-.62-.24-.81-.44-.19-.19-.28-.45-.28-.78l-.04-7.19c0-.28.07-.49.23-.64.16-.15.43-.23.8-.22.35,0,.61.09.8.25.18.15.27.41.27.75l.02,7.64Z"/>
                      <path class="cls-7" d="M42.54,30.64c-.3,0-.64-.05-1.03-.16-.84-.24-1.45-.59-1.86-1.06-.42-.49-.64-1.08-.64-1.75l-.05-6.9c0-.77.25-1.36.76-1.74.47-.36,1.1-.52,1.87-.53.89,0,1.54.23,1.99.68.44.45.66,1.06.66,1.81v7.7c0,.88-.27,1.47-.81,1.76-.25.13-.55.2-.88.2ZM41.56,18.93c-.66,0-1.19.15-1.58.45-.39.29-.59.76-.58,1.39l.05,6.9c0,.56.19,1.05.54,1.46.35.41.89.71,1.65.93.7.2,1.21.2,1.58,0,.38-.2.58-.66.58-1.37v-7.7c0-.63-.19-1.14-.54-1.5-.36-.37-.9-.54-1.67-.55h-.02ZM42.13,29.42c-.14,0-.31-.03-.5-.08-.38-.1-.69-.27-.92-.5-.23-.24-.35-.55-.35-.93l-.04-7.19c0-.34.1-.61.3-.8.2-.19.52-.3.96-.28.4,0,.71.11.94.31.23.2.34.5.35.92l.02,7.64c0,.36-.1.63-.3.78-.12.09-.27.13-.45.13ZM41.52,20.08c-.28,0-.48.05-.59.16-.11.11-.17.26-.17.48l.04,7.19c0,.27.07.47.22.62.17.17.41.3.71.38.41.11.54.04.57.02.11-.08.13-.28.13-.43l-.02-7.64c0-.28-.07-.48-.19-.58-.15-.13-.37-.19-.66-.2h-.05Z"/>
                    </g>
                  </g>
                </g>
                <path class="cls-8" d="M22.83,24.18l2.27-5.41c.05-.11.03-.24-.03-.34-.07-.1-.18-.16-.3-.16h-1.17c-.15,0-.28.09-.34.23l-1.41,3.67v-3.54c.01-.1-.03-.19-.09-.26-.07-.07-.16-.11-.26-.11h-1.09c-.2,0-.36.16-.36.36l-.02,11.5c0,.11.05.22.15.29.06.05.14.07.22.07.04,0,.07,0,.11-.02l1.07-.33c.15-.05.25-.18.25-.34v-3.77c.7,1.18,1.77,2.99,1.99,3.37.08.14.24.21.4.17l1.27-.31c.11-.03.21-.11.25-.21.04-.11.03-.23-.03-.33l-2.86-4.54Z"/>
                <path class="cls-8" d="M31.4,18.31h-.87c-.15,0-.29.1-.34.25l-1.86,5.48.02-5.37c0-.1-.04-.19-.11-.26-.07-.07-.16-.11-.26-.11h-1.09c-.2,0-.36.16-.36.36l-.05,9.92c0,.1.04.2.12.27.07.06.15.09.24.09.02,0,.03,0,.05,0l.98-.13c.13-.02.24-.11.29-.23.42-1.15,1.17-3.22,1.77-4.88v4.61c0,.1.03.19.1.26.07.07.16.11.26.11h1.1c.2,0,.36-.16.36-.36v-9.64c0-.2-.16-.36-.35-.36"/>
                <path class="cls-8" d="M37.68,18.31h-1.09c-.1,0-.19.04-.26.11-.07.07-.11.16-.11.26l.02,4.12c-.48-.03-.96-.06-1.43-.08v-4.05c-.01-.2-.18-.36-.37-.36h-1.09c-.1,0-.19.04-.26.11-.07.07-.11.16-.11.26l.03,9.64c0,.19.15.35.34.36l1.1.07c.1,0,.2-.03.27-.1.07-.07.11-.16.11-.26v-4.19c.46.02.94.05,1.42.09l.02,4.24c0,.17.12.31.28.35l1.09.26s.06,0,.08,0c.08,0,.16-.03.22-.08.09-.07.14-.17.14-.28l-.06-10.12c0-.2-.16-.36-.36-.36"/>
                <path class="cls-8" d="M44.51,20.7c0-.75-.22-1.36-.67-1.81-.44-.45-1.09-.68-1.98-.68-.76,0-1.39.18-1.87.53-.51.38-.77.97-.76,1.74l.05,6.9c0,.67.22,1.25.64,1.75.41.48,1.02.82,1.86,1.06.39.11.72.16,1.03.16.34,0,.63-.07.88-.2.54-.28.81-.88.81-1.76v-7.7ZM42.72,28.23h0c0,.15-.02.35-.13.43-.03.02-.16.09-.57-.02-.3-.08-.54-.21-.71-.38-.15-.15-.22-.35-.22-.63l-.04-7.19c0-.22.05-.37.16-.48.11-.1.31-.16.59-.16.02,0,.04,0,.05,0,.3,0,.51.07.66.2.13.11.19.31.19.58l.02,7.64Z"/>
                <path class="cls-13" d="M42.46,29.46c-.27,0-.5-.06-.62-.09-.47-.12-.85-.32-1.14-.6-.31-.31-.47-.71-.48-1.19l-.05-7.19c0-.45.14-.81.44-1.07.28-.25.69-.38,1.21-.38h.08c.52.01.92.14,1.23.4.33.27.5.67.5,1.2l.02,7.64c0,.61-.26.92-.47,1.08-.19.14-.43.21-.72.21ZM41.9,19.01h-.08c-.51,0-.9.12-1.16.36-.28.25-.41.59-.41,1.02l.05,7.19c0,.46.15.84.45,1.13.28.27.65.47,1.11.58.11.03.34.08.6.08.27,0,.5-.06.68-.19.2-.15.44-.44.44-1.02l-.02-7.64h0c0-.5-.16-.88-.47-1.14-.3-.24-.69-.37-1.18-.38Z"/>
                <path class="cls-13" d="M20.94,29.46s-.04-.02-.04-.04v-10.29s.02-.04.04-.04.04.02.04.04v10.29s-.02.04-.04.04Z"/>
                <path class="cls-13" d="M21.94,24.13h-.95s-.04-.02-.04-.04.02-.04.04-.04h.92l2.06-5s.03-.03.05-.02c.02,0,.03.03.02.05l-2.07,5.03s-.02.02-.04.02Z"/>
                <path class="cls-13" d="M24.66,28.75s-.03,0-.03-.02l-2.72-4.61s0-.04.01-.05c.02-.01.04,0,.05.01l2.72,4.61s0,.04-.01.05c0,0-.01,0-.02,0Z"/>
                <path class="cls-13" d="M27.5,27.98s0,0,0,0c-.02,0-.03-.02-.03-.04v-8.69s.02-.04.04-.04.04.02.04.04v8.49l3.3-8.5s.03-.03.04-.02c.02,0,.03.02.03.04v8.69s-.02.04-.04.04-.04-.02-.04-.04v-8.49l-3.3,8.5s-.02.03-.04.03Z"/>
                <path class="cls-13" d="M33.95,27.98s-.04-.02-.04-.04v-8.93s.02-.04.04-.04.04.02.04.04v8.93s-.02.04-.04.04Z"/>
                <path class="cls-13" d="M37.2,28.39s-.04-.02-.04-.04v-9.34s.02-.04.04-.04.04.02.04.04v9.34s-.02.04-.04.04Z"/>
                <path class="cls-13" d="M37.14,23.54s0,0,0,0l-3.02-.18s-.04-.02-.04-.04c0-.02.02-.04.04-.04,0,0,0,0,0,0l3.02.18s.04.02.04.04c0,.02-.02.04-.04.04Z"/>
              </g>
            </g>
            <g>
              <path class="cls-13" d="M12.37,38.98h6.9c2.58,0,4.67,2.09,4.67,4.67v.22c0,2.58-2.09,4.67-4.67,4.67h-6.9v-9.56h0Z"/>
              <path class="cls-4" d="M12.37,39.36h6.75c2.43,0,4.4,1.97,4.4,4.4h0c0,2.43-1.97,4.4-4.4,4.4h-6.75v-8.8h0Z"/>
              <path class="cls-15" d="M17.26,46.85s-.05,0-.07-.02c-1.03-.67-1.67-1.85-1.67-3.07s.61-2.36,1.63-3.04c.06-.04.13-.02.17.03.04.06.02.13-.03.17-.94.63-1.52,1.71-1.52,2.83s.6,2.23,1.56,2.86c.06.04.07.12.04.17-.02.04-.06.06-.1.06Z"/>
              <g>
                <rect class="cls-15" x="12.37" y="41.69" width="3.9" height=".25"/>
                <rect class="cls-15" x="12.37" y="45.59" width="3.9" height=".25"/>
              </g>
              <path class="cls-13" d="M18.16,42.05c0-.11.04-.18.14-.23l1.86-.9c.1-.05.14-.02.14.09v5.56c0,.11-.05.16-.16.16h-.68c-.11,0-.16-.05-.16-.16v-4.42l-1,.46c-.1.05-.14.02-.14-.1v-.45Z"/>
            </g>
            <g>
              <path class="cls-13" d="M12.37,64.06h6.9c2.58,0,4.67,2.09,4.67,4.67v.22c0,2.58-2.09,4.67-4.67,4.67h-6.9v-9.56h0Z"/>
              <path class="cls-4" d="M12.37,64.44h6.75c2.43,0,4.4,1.97,4.4,4.4h0c0,2.43-1.97,4.4-4.4,4.4h-6.75v-8.8h0Z"/>
              <path class="cls-15" d="M17.26,71.93s-.05,0-.07-.02c-1.03-.67-1.67-1.85-1.67-3.07s.61-2.36,1.63-3.04c.06-.04.13-.02.17.03.04.06.02.13-.03.17-.94.63-1.52,1.71-1.52,2.83s.6,2.23,1.56,2.86c.06.04.07.12.04.17-.02.04-.06.06-.1.06Z"/>
              <g>
                <rect class="cls-15" x="12.37" y="66.77" width="3.9" height=".25"/>
                <rect class="cls-15" x="12.37" y="70.67" width="3.9" height=".25"/>
              </g>
              <path class="cls-13" d="M17.73,71.42c0-.09,0-.2.08-.3l1.69-2.59c.06-.08.48-.6.48-1.1,0-.37-.22-.71-.74-.71-.34,0-.93.13-1.19.19-.14.03-.19.04-.21-.02l-.13-.34c-.05-.13-.05-.16,0-.21.17-.14.96-.39,1.63-.39.89,0,1.64.46,1.67,1.46.02.46-.1.85-.42,1.25l-1.93,2.42h2.26c.11,0,.16.05.16.16v.4c0,.11-.05.16-.16.16h-3.05c-.11,0-.16-.05-.16-.16v-.22Z"/>
            </g>
            <g>
              <path class="cls-13" d="M12.37,89.14h6.9c2.58,0,4.67,2.09,4.67,4.67v.22c0,2.58-2.09,4.67-4.67,4.67h-6.9v-9.56h0Z"/>
              <path class="cls-4" d="M12.37,89.52h6.75c2.43,0,4.4,1.97,4.4,4.4h0c0,2.43-1.97,4.4-4.4,4.4h-6.75v-8.8h0Z"/>
              <path class="cls-15" d="M17.26,97.01s-.05,0-.07-.02c-1.03-.67-1.67-1.85-1.67-3.07s.61-2.36,1.63-3.04c.06-.04.13-.02.17.03.04.06.02.13-.03.17-.94.63-1.52,1.71-1.52,2.83s.6,2.23,1.56,2.86c.06.04.07.12.04.17-.02.04-.06.06-.1.06Z"/>
              <g>
                <rect class="cls-15" x="12.37" y="91.85" width="3.9" height=".25"/>
                <rect class="cls-15" x="12.37" y="95.75" width="3.9" height=".25"/>
              </g>
              <path class="cls-13" d="M18.81,93.64c0-.11.02-.2.09-.3l.84-1.5h-1.86c-.11,0-.16-.05-.16-.16v-.4c0-.11.05-.16.16-.16h2.89c.11,0,.16.05.16.16v.22c0,.09,0,.2-.08.3l-1.1,1.52c.86.14,1.46.78,1.46,1.73,0,1.1-.86,1.91-1.89,1.91-.67,0-1.49-.24-1.68-.39-.06-.05-.06-.09,0-.21l.13-.34c.02-.06.13-.04.21-.02.21.06.88.19,1.34.19.42,0,.85-.38.86-1.09,0-.71-.4-1.17-.98-1.16h-.2c-.11,0-.16-.05-.16-.16v-.17Z"/>
            </g>
            <g>
              <path class="cls-13" d="M12.37,114.22h6.9c2.58,0,4.67,2.09,4.67,4.67v.22c0,2.58-2.09,4.67-4.67,4.67h-6.9v-9.56h0Z"/>
              <path class="cls-4" d="M12.37,114.6h6.75c2.43,0,4.4,1.97,4.4,4.4h0c0,2.43-1.97,4.4-4.4,4.4h-6.75v-8.8h0Z"/>
              <path class="cls-15" d="M17.26,122.09s-.05,0-.07-.02c-1.03-.67-1.67-1.85-1.67-3.07s.61-2.36,1.63-3.04c.06-.04.13-.02.17.03.04.06.02.13-.03.17-.94.63-1.52,1.71-1.52,2.83s.6,2.23,1.56,2.86c.06.04.07.12.04.17-.02.04-.06.06-.1.06Z"/>
              <g>
                <rect class="cls-15" x="12.37" y="116.93" width="3.9" height=".25"/>
                <rect class="cls-15" x="12.37" y="120.83" width="3.9" height=".25"/>
              </g>
              <path class="cls-13" d="M20.71,116.21c.11,0,.16.05.16.16v3.51h.5c.11,0,.16.05.16.16v.39c0,.11-.05.16-.16.16h-.5v1.21c0,.11-.05.16-.16.16h-.69c-.11,0-.16-.05-.16-.16v-1.21h-2.31c-.11,0-.16-.05-.16-.16v-.08c0-.11.02-.2.09-.29l2.45-3.73c.06-.09.14-.13.25-.13h.53ZM19.87,117.78h-.02l-1.29,2.09h1.31v-2.09Z"/>
            </g>
            <g>
              <path class="cls-13" d="M40.73,38.98h6.9c2.58,0,4.67,2.09,4.67,4.67v.22c0,2.58-2.09,4.67-4.67,4.67h-6.9v-9.56h0Z" transform="translate(93.03 87.52) rotate(180)"/>
              <path class="cls-4" d="M41.15,39.36h6.75c2.43,0,4.4,1.97,4.4,4.4h0c0,2.43-1.97,4.4-4.4,4.4h-6.75v-8.8h0Z" transform="translate(93.45 87.52) rotate(-180)"/>
              <path class="cls-15" d="M47.41,46.85s-.08-.02-.1-.06c-.04-.06-.02-.14.04-.17.96-.63,1.56-1.72,1.56-2.86s-.58-2.21-1.52-2.83c-.06-.04-.07-.12-.03-.17.04-.06.12-.07.17-.03,1.02.68,1.63,1.82,1.63,3.04s-.64,2.39-1.67,3.07c-.02.01-.04.02-.07.02Z"/>
              <g>
                <rect class="cls-15" x="48.4" y="41.69" width="3.9" height=".25"/>
                <rect class="cls-15" x="48.4" y="45.59" width="3.9" height=".25"/>
              </g>
              <path class="cls-13" d="M43.94,43.8c-.09-.07-.11-.16-.1-.27l.13-2.4c0-.11.06-.16.17-.16h2.36c.11,0,.16.05.16.16v.4c0,.11-.05.16-.16.16h-1.85l-.07,1.44c.23-.05.45-.08.68-.08.82,0,1.81.62,1.81,1.85,0,1.09-.78,1.92-1.84,1.92-.67,0-1.49-.24-1.68-.39-.06-.05-.06-.09,0-.21l.13-.34c.02-.06.13-.04.21-.02.21.06.88.19,1.34.19.4,0,.8-.33.81-1.14,0-.61-.31-1.11-.78-1.11-.37,0-.84.1-.98.13-.11.02-.19-.02-.27-.1l-.05-.04Z"/>
            </g>
            <g>
              <path class="cls-13" d="M40.73,64.06h6.9c2.58,0,4.67,2.09,4.67,4.67v.22c0,2.58-2.09,4.67-4.67,4.67h-6.9v-9.56h0Z" transform="translate(93.03 137.68) rotate(180)"/>
              <path class="cls-4" d="M41.15,64.44h6.75c2.43,0,4.4,1.97,4.4,4.4h0c0,2.43-1.97,4.4-4.4,4.4h-6.75v-8.8h0Z" transform="translate(93.45 137.68) rotate(180)"/>
              <path class="cls-15" d="M47.41,71.93s-.08-.02-.1-.06c-.04-.06-.02-.14.04-.17.96-.63,1.56-1.72,1.56-2.86s-.58-2.21-1.52-2.83c-.06-.04-.07-.12-.03-.17.04-.06.12-.07.17-.03,1.02.68,1.63,1.82,1.63,3.04s-.64,2.39-1.67,3.07c-.02.01-.04.02-.07.02Z"/>
              <g>
                <rect class="cls-15" x="48.4" y="66.77" width="3.9" height=".25"/>
                <rect class="cls-15" x="48.4" y="70.67" width="3.9" height=".25"/>
              </g>
              <path class="cls-13" d="M44.26,68.89c.2-.76.65-.95,1.17-.95,1.28,0,1.73.88,1.73,1.94s-.51,2.01-1.86,2.01c-1.18,0-1.89-.98-1.89-2.94s.86-3.01,2.01-3.01c.64,0,1.45.32,1.45.47,0,.03,0,.07-.03.13l-.13.34s-.04.04-.08.04c.03,0-.7-.22-1.17-.22-.69,0-1.19.51-1.2,2.18ZM45.22,71.14c.78,0,.98-.63.98-1.28s-.17-1.16-.9-1.16-.94.66-.93,1.42c0,.7.46,1.01.86,1.01Z"/>
            </g>
            <g>
              <path class="cls-13" d="M40.73,89.14h6.9c2.58,0,4.67,2.09,4.67,4.67v.22c0,2.58-2.09,4.67-4.67,4.67h-6.9v-9.56h0Z" transform="translate(93.03 187.85) rotate(180)"/>
              <path class="cls-4" d="M41.15,89.52h6.75c2.43,0,4.4,1.97,4.4,4.4h0c0,2.43-1.97,4.4-4.4,4.4h-6.75v-8.8h0Z" transform="translate(93.45 187.85) rotate(180)"/>
              <path class="cls-15" d="M47.41,97.01s-.08-.02-.1-.06c-.04-.06-.02-.14.04-.17.96-.63,1.56-1.72,1.56-2.86s-.57-2.2-1.52-2.83c-.06-.04-.07-.12-.03-.17.04-.06.12-.07.17-.03,1.02.68,1.63,1.82,1.63,3.04s-.64,2.4-1.67,3.07c-.02.01-.04.02-.07.02Z"/>
              <g>
                <rect class="cls-15" x="48.4" y="91.85" width="3.9" height=".25"/>
                <rect class="cls-15" x="48.4" y="95.75" width="3.9" height=".25"/>
              </g>
              <path class="cls-13" d="M44.32,96.88c-.11,0-.14-.05-.11-.15l1.68-4.88h-2.13c-.11,0-.16-.05-.16-.16v-.4c0-.11.05-.16.16-.16h3.05c.11,0,.16.05.16.16v.29c0,.11-.03.19-.08.3l-1.62,4.85c-.03.1-.1.15-.21.15h-.74Z"/>
            </g>
            <g>
              <path class="cls-13" d="M40.73,114.22h6.9c2.58,0,4.67,2.09,4.67,4.67v.22c0,2.58-2.09,4.67-4.67,4.67h-6.9v-9.56h0Z" transform="translate(93.03 238.01) rotate(180)"/>
              <path class="cls-4" d="M41.15,114.6h6.75c2.43,0,4.4,1.97,4.4,4.4h0c0,2.43-1.97,4.4-4.4,4.4h-6.75v-8.8h0Z" transform="translate(93.45 238.01) rotate(-180)"/>
              <path class="cls-15" d="M47.41,122.09s-.08-.02-.1-.06c-.04-.06-.02-.14.04-.17.96-.62,1.56-1.72,1.56-2.86s-.58-2.21-1.52-2.83c-.06-.04-.07-.12-.03-.17.04-.06.12-.07.17-.03,1.02.68,1.63,1.82,1.63,3.04s-.64,2.4-1.67,3.07c-.02.01-.04.02-.07.02Z"/>
              <g>
                <rect class="cls-15" x="48.4" y="116.93" width="3.9" height=".25"/>
                <rect class="cls-15" x="48.4" y="120.83" width="3.9" height=".25"/>
              </g>
              <path class="cls-13" d="M47.26,120.31c0,1.13-.7,1.75-1.97,1.75s-1.97-.62-1.97-1.74c0-.72.42-1.24,1.16-1.52-.6-.26-.92-.66-.92-1.21,0-.88.53-1.48,1.73-1.48s1.74.61,1.74,1.49c0,.57-.33.96-.92,1.2.76.28,1.16.82,1.16,1.51ZM44.31,120.29c0,.64.45,1.02.98,1.02s.98-.38.98-1.02-.45-1.07-.98-1.07-.98.41-.98,1.08ZM44.55,117.59c0,.47.34.82.74.82.42,0,.74-.38.74-.82,0-.4-.3-.73-.73-.73-.4,0-.74.29-.74.73Z"/>
            </g>
            <g>
              <path class="cls-10" d="M49.33,135.73c.12.03.22.13.26.26l3.47,13.04c.07.28-.18.52-.45.45l-18.76-7.06c-.31-.12-.32-.56,0-.68l15.25-5.99c.08-.03.16-.03.23-.01"/>
              <path class="cls-5" d="M53.04,149.28s0,.02-.01.02c0,.01-.01.02-.02.03,0,.01-.02.02-.03.03,0,0-.01.02-.02.02,0,0,0,0-.01,0-.01.01-.03.02-.04.03,0,0,0,0,0,0-.02.01-.04.02-.06.03,0,0,0,0-.01,0-.02,0-.04.01-.06.01,0,0,0,0,0,0-.02,0-.04,0-.06,0,0,0-.01,0-.02,0-.02,0-.04,0-.07-.01l-18.76-7.06c-.2-.07-.27-.27-.22-.44l-.08.29c-.05.17.03.37.22.44l18.76,7.06s.05,0,.07.01c0,0,.01,0,.02,0,.02,0,.04,0,.06,0,0,0,0,0,0,0,.02,0,.04,0,.06-.01,0,0,0,0,.01,0,.02,0,.04-.02.06-.03,0,0,0,0,0,0,.02,0,.03-.02.04-.03,0,0,0,0,.01,0,0,0,0,0,0,0,0,0,0-.01.02-.02,0-.01.02-.02.03-.03,0,0,0,0,0,0,0,0,0-.02.01-.02,0,0,0-.02.01-.02,0,0,0,0,0,0,0-.02.01-.03.02-.05l.08-.29s-.01.04-.02.06"/>
            </g>
            <g>
              <path class="cls-3" d="M17.12,124l12.54,13.08c.21.22.03.6-.27.6l-15.35.06c-.08,0-.14-.02-.2-.07-.09-.07-.14-.2-.11-.33l2.85-13.11c.06-.26.36-.38.55-.23"/>
              <path class="cls-6" d="M29.58,137.61s-.03.02-.05.03c0,0-.01,0-.02,0-.02,0-.03.01-.05.02,0,0-.01,0-.02,0-.02,0-.04,0-.07,0l-15.35.06c-.08,0-.14-.02-.2-.07-.09-.07-.14-.2-.11-.33l2.85-13.11c.02-.1.08-.18.15-.23l-.38.26c-.07.05-.13.13-.15.23l-2.85,13.11c-.03.13.02.26.11.33.05.04.12.07.2.07l15.35-.06s.05,0,.07,0c0,0,.01,0,.02,0,.02,0,.03,0,.05-.02,0,0,0,0,.01,0,0,0,0,0,0,0,.02,0,.03-.02.05-.03l.38-.26Z"/>
            </g>
            <g>
              <polygon class="cls-8" points="18.74 144.62 17.58 146.64 16.64 146.15 18.74 144.62"/>
              <polygon class="cls-3" points="17.76 144.59 14.96 146.31 14.34 145.15 17.76 144.59"/>
            </g>
          </g>
          <g>
            <g>
              <path class="cls-13" d="M5.97,150.54h24.52c.76,0,1.38.62,1.38,1.38v1.02H4.59v-1.02c0-.76.62-1.38,1.38-1.38Z"/>
              <path class="cls-9" d="M6.57,151.06h23.33c.78,0,1.41.63,1.41,1.41v.46H5.16v-.46c0-.78.63-1.41,1.41-1.41Z"/>
            </g>
            <g>
              <path class="cls-13" d="M34.15,150.54h24.52c.76,0,1.38.62,1.38,1.38v1.02h-27.28v-1.02c0-.76.62-1.38,1.38-1.38Z"/>
              <path class="cls-4" d="M34.75,151.06h23.33c.78,0,1.41.63,1.41,1.41v.46h-26.15v-.46c0-.78.63-1.41,1.41-1.41Z"/>
            </g>
          </g>
        </g>
      </g>
    </g>
  </g>
</svg>