<?xml version="1.0" encoding="UTF-8"?>
<svg id="_Слой_2" data-name="Слой 2" xmlns="http://www.w3.org/2000/svg" viewBox="0 0 53.19 58.34">
  <defs>
    <style>
      .cls-1 {
        fill: #d33c25;
      }

      .cls-1, .cls-2, .cls-3, .cls-4 {
        stroke-width: 0px;
      }

      .cls-2 {
        fill: #e1d7bd;
      }

      .cls-3 {
        fill: #ebe9ea;
      }

      .cls-4 {
        fill: #6a3b2d;
      }
    </style>
  </defs>
  <g id="_Слой_1-2" data-name="Слой 1">
    <g>
      <path class="cls-4" d="M28.89,56.9c-5.08.02-10.13-.37-15.17-1.01-.2-.03-.4-.06-.59-.08-3.01-.22-3.52-.53-4.33-3.45-1.12-4.04-1.75-8.2-2.52-12.32-.69-3.65-1.33-7.3-1.96-10.96-.11-.63-.43-.83-1-.98-1.85-.48-3.09-1.8-3.28-3.4-.14-1.19.1-2.24,1.2-2.92.34-.21.47-.51.57-.86.45-1.56,1.56-2.38,3.12-2.58.8-.1,1.14-.24,1-1.23-.42-2.85,1.36-5.02,4.29-5.43.46-.06.87.04,1.03-.67.52-2.32,2.87-3.2,4.95-1.91,1.4.86,2.29.99,3.9.54,1.69-.47,1.88-.6,2.87-2.05,1.54-2.25,3.94-2.73,6.27-1.19.52.34.87.5,1.48.15,1.27-.72,2.62-.75,3.86.09,1.33.91,1.96,2.23,1.72,3.83-.12.8.04,1.15.77,1.56,1.97,1.09,2.74,2.95,2.66,5.13-.03.74.14,1.16.82,1.48,2.01.92,3.18,2.5,3.5,4.68.07.49.3.75.7,1.01,1.66,1.09,2.28,2.65,1.76,4.3-.59,1.86-1.92,2.82-3.95,2.83-.71,0-1.82,1.96-1.47,2.58.15.27.42.16.63.2,2.34.47,3.47,2.32,2.8,4.61-.08.28-.06.54-.06.82.03,1.91-1.23,2.97-3.03,2.35-.81-.28-1.46.23-2.21,0-.31-.09-.37.44-.45.74-1.06,3.69-2.22,7.36-3.15,11.08-.4,1.62-1.33,2.38-2.8,2.7-1.29.28-2.6.42-3.92.34ZM26.39,19.99c.05-1.71-.46-2.27-2.1-2.44-2.04-.21-3.66.57-5.03,2.01-.47.5-1.02.75-1.56.23-.51-.49-.25-1.02.15-1.48,1.08-1.24,2.43-2.02,4.03-2.45,1.31-.35,1.89-1.7,1.43-3.08-.46-1.36-1.45-1.79-2.86-1.26-.65.25-1.16.69-1.6,1.22-.95,1.14-1.4,1.09-2.18-.23-.43-.72-.84-1.45-1.63-1.87-.55-.29-1.06-.3-1.57.06-.56.4-.35.91-.18,1.41.16.48.48.96.05,1.46-.48.55-1.01.23-1.55.11-2.39-.55-4.12.84-3.98,3.18.08,1.39.31,1.51,1.54.82,2.78-1.54,6.38.27,6.35,3.19,0,.65-.13,1.24-.94,1.27-.72.03-.97-.44-.98-1.08-.01-1.01-.51-1.66-1.48-1.92-1.25-.34-2.29.1-3.09,1.28-.84,1.24-1.07,1.28-2.22.34-1.43-1.16-3.13-.58-3.41,1.19-.11.69-.27,1.23-1.05,1.39-.45.09-.65.42-.66.87-.02,1.43,1.86,2.63,3.08,1.96,2.96-1.63,6.14-2.5,9.5-2.61,5.49-.18,10.94.28,16.36,1.1,3.84.58,7.4,1.98,10.61,4.17.72.49,1.29.72,2.06.33.74-.38,1.16-.98,1.14-1.82-.02-.89-.57-1.37-1.38-1.59-.66-.18-1.06-.52-1.01-1.26.23-3.36-3.52-5.87-6.48-3.96-.51.33-1.04.22-1.33-.33-.3-.56-.02-1,.48-1.3.66-.39,1.34-.73,2.1-.82.64-.08.85-.4.88-1.03.1-2.01-.98-3.39-3.04-3.78-1.11-.21-1.32-.63-.86-1.66.15-.33.3-.66.37-1,.19-.98,0-1.87-.89-2.42-.83-.51-1.6-.18-2.31.37-1.36,1.04-1.37,1.03-2.64-.28-.88-.9-2.31-1.05-3.28-.35-1.01.73-1.22,1.99-.6,3.15.64,1.19,1.03,2.45.61,3.8-.2.64-.1.93.58,1.11.88.22,1.62.73,2.02,1.57.27.58.66.76,1.27.87,2.06.37,3.23,2.08,2.76,3.88-.12.46-.24.88-.82.82-.56-.06-.98-.34-1.05-.95-.03-.31.04-.65-.03-.95-.12-.52-.54-.76-1.02-.91-.36-.1-.61-.04-.75.35-.2.57-.6.87-1.2.68-.71-.22-.63-.83-.58-1.35ZM19.05,42.04c-.12-2.67-.25-4.74-.3-6.81-.05-2.11-.04-4.23,0-6.34.02-1.09.72-2.54.06-3.18-.71-.69-2.21-.35-3.35-.25-3.02.25-2.64-.51-2.75,2.87-.12,3.88.49,7.72.63,11.59.16,4.35.28,8.7.42,13.04.02.5-.08,1.08.73,1.1,1.31.02,2.61.22,3.9.48.42.08.81,0,.59-.64-.09-.25-.03-.55-.03-.83-.02-3.87-.07-7.74.1-11.01ZM26.35,30.05c0-.96,0-1.92,0-2.88,0-.5-.18-.86-.74-.9-1.39-.09-2.78-.17-4.17-.28-.65-.05-.96.25-1.03.88-.36,3.14-.32,6.28-.18,9.44.12,2.69.44,5.37.23,8.1-.21,2.7-.28,5.43.08,8.13.32,2.41.4,2.42,2.86,2.25.65-.04.95-.32.99-.93.1-1.23.18-2.46.28-3.69.29-3.33.68-6.66.86-10,.19-3.38.95-6.71.82-10.12ZM28.01,29.24c-.38,5.65-1.19,11.26-1.55,16.92-.17,2.59-.41,5.17-.62,7.75-.03.42-.17.9.56.9,1.08,0,2.15.07,3.23.13.63.03.92-.18.99-.86.28-2.66.62-5.31.94-7.96.12-.99-.23-1.57-1.3-1.73-1.19-.18-2.09-1.31-2.16-2.68-.07-1.51-.13-2.18,1.62-2.68.48-.14.92-.41,1.41-.53.72-.17,1.02-.52,1.07-1.3.14-2.31.4-4.61.58-6.92.26-3.38.25-3.38-3.16-3.78q-1.67-.19-1.61,1.54c.01.4,0,.8,0,1.2ZM11.19,29.48h.08c0-.84,0-1.68,0-2.52,0-.49-.21-.83-.72-.65-1.19.44-2.48.59-3.61,1.23-.63.36-.78.78-.65,1.47,1.12,6.07,2.2,12.15,3.33,18.22.36,1.96.76,3.91,1.4,5.81.17.5.48.74.95.73.53,0,.47-.47.46-.81-.09-3.06-.13-6.13-.3-9.19-.26-4.77-.62-9.54-.93-14.3ZM37.36,38.92c-.05-.17-.11-.4-.19-.62-.76-1.97-.59-2.37.93-3.71,1.15-1.01,1.12-2.56,1.4-3.94.05-.24-.21-.42-.43-.53-1.28-.65-2.56-1.3-3.84-1.95-.68-.34-.9-.11-.94.62-.14,2.47-.12,4.97-.59,7.38-.37,1.94.51,2.89,1.85,3.77.4.26.7,1.02,1.23.7.5-.31.39-1.08.58-1.72ZM39.25,39.28c-.13,1.27.12,1.47,1.24.96.48-.22.82-.13,1.16.24.28.3.63.31.99.15.41-.19.4-.58.34-.93-.1-.56-.06-1.05.23-1.59.52-1-.58-2.54-1.69-2.34-.61.11-1.15.1-1.73-.03-.59-.14-1.14.06-1.41.63-.24.51-.15,1.05.32,1.39.56.41.72.92.57,1.52ZM32.12,53.71c.02.33-.08.74.37.79.46.05.9-.12,1.03-.63.7-2.66,1.38-5.33,2.06-8,.06-.24.12-.47-.16-.62-.55-.3-2.31.49-2.39,1.13-.33,2.45-.61,4.9-.9,7.33ZM29.49,41.39c.02,1.03.54,1.5,1.62,1.41.41-.04.76.06.88.43.27.8.66,1.08,1.52.73.6-.24,1.37-.06,1.85-.66.23-.29.3-.64.24-1.02-.1-.58-2.39-2.65-2.99-2.67-1.09-.04-1.85.84-2.86,1.04-.25.05-.26.46-.25.74Z"/>
      <path class="cls-4" d="M6.32,4.05c-.57-1.38.03-2.65,1.52-3.64,1.01-.67,3.17-.52,4.52.4.98.68,1.28,1.64.89,3.09-.09.36-.12.68-.09,1.05.16,2.02-1.17,3.1-3.09,2.52-.26-.08-.49-.2-.8-.17-2.16.21-2.98-.61-2.95-3.26ZM9.6,1.34c-1.29.01-2.17.62-1.98,1.51.15.71.16,1.39.13,2.11-.05.95.51,1.29,1.34.84.55-.3.94-.28,1.36.19.27.3.64.29.99.1.33-.19.31-.52.31-.84-.01-.39-.21-.74-.09-1.17.52-1.88-.14-2.74-2.05-2.72Z"/>
      <path class="cls-4" d="M47.4,54.21c-.26.61-.11,1.39-.08,2.18.03.65-.28,1.24-.87,1.61-1.43.9-4.64-.16-5.17-1.75-.14-.4-.38-.68-.62-.99-.64-.84-.64-1.78-.27-2.72.36-.93,1.15-1.27,2.06-1.4.39-.06.82.02,1.18-.12,1.84-.75,3.88,1.29,3.77,3.2ZM45.91,56.01c-.37-.62-.1-1.27.05-1.97.18-.8-.86-1.87-1.6-1.66-.59.17-1.14.24-1.74.22-.52-.01-.92.26-1.09.76-.16.47.03.86.39,1.16.21.18.48.29.54.6.12.63.17,1.42,1.02,1.34.73-.07,1.27.34,1.9.41.39.04.56-.38.52-.87Z"/>
      <path class="cls-4" d="M44.81,15.29c-1.03-.89-2.82-.86-3.82-2.16-1.23-1.6-.65-3.09,1.3-3.68.49-.15.92-.47,1.4-.65,1.4-.51,2.44-.1,3.04,1.25.21.46.46.74.92.99.9.48,1.45,1.27,1.29,2.36-.15,1.04-.95,1.41-1.86,1.58-.66.12-1.34.19-2.26.31ZM44.97,13.8c.65-.06,1.09-.09,1.52-.15.39-.05.88-.06.97-.53.1-.52-.35-.76-.75-.94-.35-.16-.79-.17-.99-.59-.26-.55-.11-1.37-.88-1.57-.69-.18-1.15.43-1.73.68-.14.06-.3.09-.45.13-.95.24-1.23.94-.45,1.54.86.67,2.3.29,2.77,1.43Z"/>
      <path class="cls-4" d="M49.12,16.51c1.18.24,2.35.88,3.53,1.5.03.02.06.05.08.09,1.1,1.38-.08,2.57-.42,3.77-.24.85-1.23.94-2.05.79-.55-.1-1.07-.15-1.64-.09-1.92.18-2.98-1.27-2.52-3.15.36-1.44.75-2.7,2.51-2.85.12-.01.24-.03.51-.06ZM51.77,19.35c-.12-.18-.17-.35-.24-.36-.94-.09-1.59-.83-2.44-1.06-.45-.12-1.2.13-1.19.55.01.82-1.09,1.84-.27,2.28.9.49,2.18.39,3.28.31.16-.01-.02-1.39.86-1.72Z"/>
      <path class="cls-4" d="M44.3,48.91c-.03.32-.14.52-.39.63-.34.14-.64.06-.86-.21-1.02-1.22-2.02-2.45-3.02-3.69-.25-.31-.29-.65.04-.95.29-.26.61-.24.85.03,1.09,1.26,2.17,2.53,3.24,3.81.09.11.11.29.14.38Z"/>
      <path class="cls-4" d="M40.24,49.84c-.01.59-.43,1.07-.75.95-.88-.33-1.13-1.25-1.35-2.07-.16-.57.42-.82.8-.74.99.21.94,1.23,1.29,1.86Z"/>
      <path class="cls-2" d="M26.39,19.99c-.05.52-.13,1.13.58,1.35.61.19,1.01-.11,1.2-.68.14-.39.39-.46.75-.35.48.14.9.39,1.02.91.07.3,0,.64.03.95.07.62.49.89,1.05.95.58.06.7-.36.82-.82.47-1.8-.7-3.52-2.76-3.88-.61-.11-1-.29-1.27-.87-.4-.84-1.14-1.35-2.02-1.57-.68-.17-.78-.46-.58-1.11.42-1.35.02-2.61-.61-3.8-.62-1.16-.41-2.42.6-3.15.98-.7,2.41-.55,3.28.35,1.28,1.31,1.28,1.32,2.64.28.71-.55,1.49-.89,2.31-.37.88.55,1.08,1.44.89,2.42-.07.35-.23.68-.37,1-.46,1.03-.25,1.45.86,1.66,2.06.39,3.14,1.77,3.04,3.78-.03.63-.25.96-.88,1.03-.77.09-1.45.44-2.1.82-.51.3-.78.74-.48,1.3.29.55.83.66,1.33.33,2.96-1.91,6.71.6,6.48,3.96-.05.74.35,1.08,1.01,1.26.8.22,1.36.69,1.38,1.59.02.84-.4,1.45-1.14,1.82-.76.39-1.34.16-2.06-.33-3.2-2.2-6.77-3.59-10.61-4.17-5.42-.82-10.87-1.28-16.36-1.1-3.36.11-6.54.98-9.5,2.61-1.22.67-3.1-.53-3.08-1.96,0-.46.21-.79.66-.87.78-.16.94-.7,1.05-1.39.28-1.77,1.98-2.35,3.41-1.19,1.16.94,1.38.9,2.22-.34.8-1.17,1.84-1.62,3.09-1.28.97.26,1.47.91,1.48,1.92,0,.65.27,1.11.98,1.08.81-.03.93-.62.94-1.27.03-2.93-3.57-4.74-6.35-3.19-1.23.68-1.46.57-1.54-.82-.14-2.34,1.59-3.73,3.98-3.18.54.12,1.07.44,1.55-.11.43-.5.11-.97-.05-1.46-.16-.49-.38-1,.18-1.41.51-.37,1.03-.35,1.57-.06.79.42,1.2,1.14,1.63,1.87.77,1.32,1.23,1.36,2.18.23.44-.53.95-.97,1.6-1.22,1.41-.54,2.39-.1,2.86,1.26.47,1.38-.12,2.72-1.43,3.08-1.59.43-2.94,1.21-4.03,2.45-.4.46-.66,1-.15,1.48.54.52,1.09.27,1.56-.23,1.37-1.44,2.99-2.22,5.03-2.01,1.64.17,2.15.73,2.1,2.44Z"/>
      <path class="cls-3" d="M19.05,42.04c-.17,3.27-.12,7.14-.1,11.01,0,.28-.06.58.03.83.22.63-.17.72-.59.64-1.29-.26-2.58-.45-3.9-.48-.81-.01-.72-.59-.73-1.1-.14-4.35-.26-8.7-.42-13.04-.14-3.87-.75-7.71-.63-11.59.11-3.37-.27-2.61,2.75-2.87,1.15-.1,2.64-.44,3.35.25.66.64-.04,2.09-.06,3.18-.05,2.11-.05,4.23,0,6.34.05,2.07.18,4.15.3,6.81Z"/>
      <path class="cls-1" d="M26.35,30.05c.14,3.4-.63,6.74-.82,10.12-.19,3.34-.57,6.66-.86,10-.11,1.23-.19,2.46-.28,3.69-.05.61-.34.89-.99.93-2.46.16-2.54.16-2.86-2.25-.36-2.7-.29-5.43-.08-8.13.21-2.72-.11-5.4-.23-8.1-.14-3.15-.18-6.3.18-9.44.07-.62.38-.92,1.03-.88,1.39.1,2.78.19,4.17.28.56.04.74.4.74.9,0,.96,0,1.92,0,2.88Z"/>
      <path class="cls-3" d="M28.01,29.24c0-.4.01-.8,0-1.2q-.06-1.73,1.61-1.54c3.41.4,3.42.4,3.16,3.78-.18,2.31-.44,4.61-.58,6.92-.05.78-.35,1.13-1.07,1.3-.48.11-.93.39-1.41.53-1.75.5-1.69,1.17-1.62,2.68.07,1.37.97,2.5,2.16,2.68,1.07.16,1.42.74,1.3,1.73-.32,2.65-.66,5.3-.94,7.96-.07.68-.37.9-.99.86-1.08-.06-2.15-.12-3.23-.13-.73,0-.59-.48-.56-.9.2-2.58.45-5.17.62-7.75.36-5.65,1.17-11.27,1.55-16.92Z"/>
      <path class="cls-1" d="M11.19,29.48c.31,4.77.67,9.53.93,14.3.17,3.06.21,6.12.3,9.19,0,.34.08.8-.46.81-.47,0-.79-.22-.95-.73-.63-1.9-1.03-3.85-1.4-5.81-1.13-6.07-2.21-12.15-3.33-18.22-.13-.69.02-1.11.65-1.47,1.13-.64,2.42-.79,3.61-1.23.51-.19.72.16.72.65,0,.84,0,1.68,0,2.51h-.08Z"/>
      <path class="cls-1" d="M37.36,38.92c-.19.64-.08,1.41-.58,1.72-.53.33-.83-.43-1.23-.7-1.34-.88-2.23-1.83-1.85-3.77.47-2.41.45-4.91.59-7.38.04-.73.26-.97.94-.62,1.28.65,2.56,1.3,3.84,1.95.22.11.47.29.43.53-.27,1.38-.25,2.93-1.4,3.94-1.52,1.34-1.69,1.74-.93,3.71.08.22.14.45.19.62Z"/>
      <path class="cls-2" d="M39.25,39.28c.15-.61,0-1.11-.57-1.52-.47-.35-.57-.88-.32-1.39.27-.57.82-.77,1.41-.63.59.14,1.12.14,1.73.03,1.11-.2,2.22,1.34,1.69,2.34-.28.54-.32,1.03-.23,1.59.06.35.07.74-.34.93-.35.16-.71.15-.99-.15-.34-.36-.68-.46-1.16-.24-1.12.51-1.37.31-1.24-.96Z"/>
      <path class="cls-1" d="M32.12,53.71c.3-2.43.58-4.88.9-7.33.09-.64,1.84-1.42,2.39-1.13.28.15.22.38.16.62-.69,2.67-1.37,5.34-2.06,8-.13.51-.57.68-1.03.63-.44-.05-.35-.45-.37-.79Z"/>
      <path class="cls-2" d="M29.49,41.39c0-.29,0-.7.25-.74,1.02-.2,1.78-1.08,2.86-1.04.6.02,2.89,2.09,2.99,2.67.06.38-.01.72-.24,1.02-.48.61-1.25.42-1.85.66-.86.34-1.25.06-1.52-.73-.13-.37-.47-.47-.88-.43-1.08.09-1.6-.38-1.62-1.41Z"/>
      <path class="cls-2" d="M9.6,1.34c1.9-.02,2.57.84,2.05,2.72-.12.43.08.78.09,1.17,0,.33.03.65-.31.84-.34.2-.72.21-.99-.1-.42-.47-.81-.49-1.36-.19-.83.45-1.39.12-1.34-.84.04-.72.02-1.4-.13-2.11-.19-.88.69-1.5,1.98-1.51Z"/>
      <path class="cls-2" d="M45.91,56.01c.04.49-.13.91-.52.87-.63-.07-1.18-.48-1.9-.41-.86.08-.91-.71-1.02-1.34-.06-.31-.33-.42-.54-.6-.36-.3-.56-.69-.39-1.16.18-.5.57-.78,1.09-.76.6.02,1.16-.06,1.74-.22.73-.21,1.78.86,1.6,1.66-.16.7-.43,1.35-.05,1.97Z"/>
      <path class="cls-2" d="M44.97,13.8c-.47-1.14-1.91-.76-2.77-1.43-.78-.6-.5-1.3.45-1.54.15-.04.31-.07.45-.13.57-.24,1.04-.86,1.73-.68.77.2.63,1.02.88,1.57.2.42.63.43.99.59.41.18.86.41.75.94-.09.47-.58.48-.97.53-.43.06-.87.09-1.52.15Z"/>
      <path class="cls-2" d="M51.77,19.35c-.89.33-.7,1.71-.86,1.72-1.1.07-2.38.18-3.28-.31-.82-.45.28-1.46.27-2.28,0-.41.74-.67,1.19-.55.85.23,1.5.97,2.44,1.06.07,0,.13.18.24.36Z"/>
    </g>
  </g>
</svg>