<?xml version="1.0" encoding="UTF-8"?>
<svg id="_Слой_2" data-name="Слой 2" xmlns="http://www.w3.org/2000/svg" viewBox="0 0 53.16 58.37">
  <defs>
    <style>
      .cls-1 {
        fill: #f6f6f6;
      }

      .cls-1, .cls-2, .cls-3, .cls-4, .cls-5, .cls-6, .cls-7, .cls-8, .cls-9, .cls-10, .cls-11, .cls-12, .cls-13, .cls-14, .cls-15, .cls-16, .cls-17, .cls-18, .cls-19, .cls-20, .cls-21 {
        stroke-width: 0px;
      }

      .cls-2 {
        fill: #4c4c4c;
      }

      .cls-3 {
        fill: #494949;
      }

      .cls-4 {
        fill: #505050;
      }

      .cls-5 {
        fill: #4e4e4e;
      }

      .cls-6 {
        fill: #4d4d4d;
      }

      .cls-7 {
        fill: #353535;
      }

      .cls-8 {
        fill: #4a4a4a;
      }

      .cls-9 {
        fill: #565656;
      }

      .cls-10 {
        fill: #545454;
      }

      .cls-11 {
        fill: #535353;
      }

      .cls-12 {
        fill: #3a3a3a;
      }

      .cls-13 {
        fill: #393939;
      }

      .cls-14 {
        fill: #575757;
      }

      .cls-15 {
        fill: #d1d1d1;
      }

      .cls-16 {
        fill: #d2d2d2;
      }

      .cls-17 {
        fill: #d0d0d0;
      }

      .cls-18 {
        fill: #d3d3d3;
      }

      .cls-19 {
        fill: #e8e8e8;
      }

      .cls-20 {
        fill: #eaeaea;
      }

      .cls-21 {
        fill: #e9e9e9;
      }
    </style>
  </defs>
  <g id="_Слой_1-2" data-name="Слой 1">
    <g>
      <path class="cls-7" d="M27.7,35.49c.04-.31.08-.61.11-.92-.06.31-.1.61-.11.92Z"/>
      <path class="cls-7" d="M37.89,45.56c-.05-.61.1-1.2.33-1.75.66-1.57.03-2.76-1.07-3.83h0c-.08.16-.16.32-.24.47h0c-.03.16-.1.33-.07.47.43,1.93-.6,3.45-1.37,5.05h0c-.61,2.52-1.22,5.03-1.85,7.55-.13.53-.37,1.08-1.03.91-.64-.16-.43-.76-.38-1.22.27-2.41.56-4.83.84-7.24-.45-.2-.93-.25-1.42-.25-.33,2.73-.69,5.46-.98,8.19-.08.8-.38,1.15-1.19,1.08-.71-.06-1.43-.08-2.15-.12-1.52-.08-1.55-.09-1.42-1.65.2-2.42.45-4.84.68-7.26.15-4.11.61-8.19,1.13-12.27.26-2.06.44-4.13.27-6.21-.07-.8.05-1.12,1-1.02,4.17.45,4.15.41,3.75,4.58-.18,1.83-.27,3.66-.4,5.49,0,0,0,0,0,0,0,0,0,0,0,0,.23.65-.4,2.01,1.24,1.5,0,0,0,0,0,0h0c.02-3.03.67-6.01.76-9.04.02-.72.44-1.01,1.14-.68,1.08.5,2.18.95,3.18,1.64.7.49.95.99.66,1.8-.22.64-.34,1.31-.5,1.97.51,1.14,1.38.65,2.18.48.01-.94.64-1.72.71-2.64.22-.7.39-1.41.24-2.15-2.13-1.99-4.82-2.9-7.49-3.83-2.34-.82-4.8-1.16-7.27-1.36-4.41-.36-8.81-.89-13.24-.58-3.46.24-6.75,1.1-9.68,3.06-.22.61-.1,1.21,0,1.82,0,0,0,0,0,0,0,0,0,0,0,0,.83,5.47,1.88,10.91,2.94,16.34.55,2.81.9,5.67,1.88,8.38.74,2.06,1.43,2.51,3.62,2.6.39.02.78.1,1.18.16.71.34,1.48.15,2.21.23,1.79.2,3.57.57,5.38.65,2.09.09,4.17-.07,6.27.17,1.93.22,3.92.08,5.8-.62.7-.43,1.54-.71,1.78-1.63.83-3.1,1.89-6.13,2.57-9.27,0,0,0,0,0,0,0,0,0,0,0,0ZM24.66,50.64c-.09,1.07-.18,2.14-.26,3.22-.04.62-.35.95-.98.97-.32,0-.64.02-.96.02-1.65,0-1.71-.05-1.96-1.69-.07-.47-.11-.95-.16-1.42-.57.44-.82,1.09-1.18,1.67.13.94-.2,1.24-1.19,1.06-1.32-.24-2.66-.42-4.01-.37-.54.11-.96-.68-1.54-.21h0s0,0,0,0c-1.02.03-1.38-.69-1.63-1.48-.8-2.56-1.24-5.2-1.72-7.83-.62-3.42-1.22-6.84-1.87-10.25-.14-.75-.3-1.48-.31-2.25,0,0,0,0,0,0-.08-.26-.18-.52-.25-.79-.76-3.27.19-4.53,3.61-4.84.91-.08.96.48.97,1.12.04,1.98-.12,3.98.24,5.95.75.51,1.16.35,1.18-.59,0-.39.02-.78.03-1.17.06.5.11.99.16,1.49.04-.48-.03-1-.16-1.49.02-1.58.08-3.16.05-4.74-.02-1.01.42-1.45,1.38-1.45,1.39-.78,2.94-.04,4.41-.5.71-.22,1.17,1.03,2.05,1.02,1.47,0,2.94.05,4.41.2,1.03.1,1.32.54,1.37,1.51.19,3.24-.28,6.44-.58,9.65-.42,4.4-.76,8.81-1.13,13.21Z"/>
      <path class="cls-7" d="M27.18,40.01c.08-.41.13-.82.18-1.23-.1.4-.15.81-.18,1.23Z"/>
      <path class="cls-2" d="M22.56,10.11c-.04.13-.07.26-.09.26-1.97-.11-3.17,1.27-4.54,2.31-.32.24-.62.31-.99.21.52.96,1.12.87,1.76.12.18-.21.35-.43.55-.63.96-.94,2.45-1.27,3.27-.72.88.58,1.13,2,.6,3.37,0,0,0,0,0,0,0,0,0,0,0,0,.93-.19,1.33.81,2.12.93-.21-.29-.14-.6-.05-.91.42-1.4.06-2.69-.59-3.92-.6-1.15-.41-2.34.54-3.08.95-.74,2.36-.63,3.29.26,1.33,1.27,1.33,1.28,2.78.26.7-.49,1.44-.78,2.22-.3.85.52,1.06,1.37.91,2.3-.05.35-.21.69-.34,1.02-.47,1.13-.29,1.49.91,1.76,1.95.44,3.01,1.78,2.92,3.65-.03.65-.25,1.05-.93,1.16-.72.11-1.38.41-1.99.79-.48.3-.81.71-.51,1.3.29.57.8.59,1.34.35.15-.06.29-.14.43-.21,2.82-1.22,5.76.52,5.98,3.62.07,1,.29,1.65,1.34,1.94.77.21,1.14.86,1.06,1.67-.1.94-.64,1.53-1.56,1.75-.18.04-.37.05-.56.06.28.87.24,1.66-.75,2.16.24-.01.48-.04.71-.04,2.13.01,3.49-.92,4.09-2.8.52-1.65-.05-3.18-1.71-4.31-.49-.33-.68-.73-.77-1.26-.36-2.03-1.48-3.51-3.33-4.4-.76-.36-.98-.83-.95-1.67.06-2.03-.66-3.8-2.46-4.88-.8-.48-1.05-.91-.97-1.86.26-3.09-2.62-5.1-5.43-3.82-.75.34-1.22.17-1.84-.2-2.57-1.53-5.39-.64-6.43,2.06-.31.8-.66,1.19-1.53,1.11-.26-.02-.53.13-.8.2.59.04,1.18.07,1.77.14.18.02.35.16.51.24Z"/>
      <path class="cls-2" d="M42.44,29.42c-.17,0-.34,0-.51.01.15.74-.02,1.45-.24,2.15.99-.5,1.03-1.29.75-2.16Z"/>
      <path class="cls-8" d="M3.82,26.61s0,0,0-.01c-.67-.23-1.16-.72-1.56-1.3-.64-.92-.51-1.46.49-1.97.54-.27.69-.69.8-1.23.37-1.88,1.95-2.43,3.47-1.25,1.08.83,1.37.79,2.17-.37.64-.92,1.45-1.47,2.62-1.35,1.21.12,1.87.79,1.98,2.01.05.64.32,1.1,1.04,1.03.72-.07.84-.64.85-1.23.06-2.82-3.31-4.63-6.13-3.3-1.49.7-1.8.49-1.75-1.23.05-1.72,1.21-2.78,3.07-2.77.39,0,.79.09,1.18.17,1.23.25,1.65-.19,1.31-1.41-.17-.61-.5-1.25.25-1.71.75-.46,1.43-.13,1.95.4.47.48.84,1.05,1.24,1.6.88-.82,1.94-1.43,2.82-2.27.38-.36.98-.34,1.44-.29-.21-.13-.7.16-.79-.41-1.62.93-2.85.62-4.37-.61-1.73-1.41-4.12-.31-4.67,1.84-.18.69-.58.71-1.11.8-2.93.49-4.5,2.45-4.23,5.37.07.79-.06,1.16-.91,1.26-1.6.19-2.75,1.02-3.21,2.63-.09.32-.25.56-.5.79-1.78,1.62-1.67,3.9.17,5.44.83.7,1.88.84,2.8,1.28-.34-.6-1.13-1.1-.43-1.93Z"/>
      <path class="cls-8" d="M4.25,26.73c-.15-.02-.29-.08-.42-.12,0,0,0,0,0,.01-.7.83.09,1.33.43,1.93,0,0,0,0,0,0-.1-.61-.22-1.21,0-1.82Z"/>
      <path class="cls-8" d="M21.06,10.14c-.46-.05-1.06-.07-1.44.29-.88.84-1.94,1.45-2.82,2.27.05.07.09.13.14.2h0c.37.1.68.03.99-.21,1.37-1.05,2.57-2.43,4.54-2.31.02,0,.05-.13.09-.26-.17-.08-.33-.22-.51-.24-.59-.07-1.18-.1-1.77-.14.08.56.58.28.79.41Z"/>
      <path class="cls-5" d="M12.27,7.33c1.48-.98,1.53-5.45.07-6.45-.1-.07-.2-.13-.31-.18-.87-.44-1.79-.65-2.85-.69-.15.02-.41,0-.61.1-1.07.5-2.23,1.19-2.29,2.38-.07,1.56-.41,3.32.96,4.61.67.63,4.25.75,5.03.23ZM8.29,1.72c.84-.48,2.4-.34,3.19.28.61.48.64,1.07.34,1.71-.21.46-.24.91-.13,1.4.09.39.1.82-.34,1.05-.36.19-.7.1-.99-.18-.28-.27-.59-.36-.98-.26-1.51.41-1.69.26-1.55-1.6,0-.02,0-.35-.08-.64-.21-.72-.18-1.34.55-1.76Z"/>
      <path class="cls-2" d="M43.76,51.06c-.39.07-.79.11-1.18.15-1.69.16-2.67,1.29-2.35,2.94.25,1.29.89,2.56,1.88,3.35,1.01.8,2.42,1.01,3.74.8.99-.16,1.5-.94,1.47-1.91-.02-.76-.1-1.5.09-2.11.04-2.09-1.73-3.57-3.66-3.2ZM45.87,56.3c.06.29-.15.53-.46.61-.71.18-2.69-.85-2.91-1.55-.12-.38-.38-.58-.63-.83-.3-.29-.45-.65-.31-1.08.19-.6,1.97-1.2,3.1-.97.79.15,1.18.75,1.34,1.58-.37.69-.28,1.46-.12,2.25Z"/>
      <path class="cls-6" d="M44.9,15.33c.84-.09,1.4-.13,1.94-.23.93-.17,1.83-.46,2.05-1.54.23-1.13-.36-1.92-1.28-2.48-.35-.21-.63-.42-.82-.81-.83-1.66-1.95-2.01-3.62-1.21-.32.16-.64.34-.97.44-1.84.56-2.45,2.16-1.23,3.65,1.05,1.29,2.76,1.5,3.93,2.17ZM42.58,10.91c.23-.07.46-.12.68-.22,1.57-.73,1.57-.74,2.42.87.19.35.48.5.82.64.44.18.99.37.88.96-.12.58-.72.51-1.18.58-.2.03-.4.03-.52.04-.11.02-.16.04-.19.03-1.14-.41-2.23-.95-3.3-1.48-.72-.36-.42-1.17.4-1.42Z"/>
      <path class="cls-6" d="M51.86,17.61c-.56-.21-1.09-.44-1.62-.71-1.14-.59-2.76-.24-3.5.68-.75.93-.99,3.27-.41,4.08.44.62,1.06,1.01,1.82.99.83-.02,1.66-.1,2.37.11,1.1,0,1.8-.38,2.04-1.42.09-.38.26-.74.41-1.11.47-1.15.06-2.18-1.11-2.62ZM50.95,20.77c-.08.93-.8.35-1.26.22-.38-.1-.7,0-1.04.12-.47.18-.99.08-1.12-.37-.24-.86.06-1.76.58-2.4.44-.56,1.22-.53,1.8.05.33.34.75.42,1.18.5.24.05.46.13.51.48-.21.42-.6.76-.65,1.39Z"/>
      <path class="cls-3" d="M38.36,34.33c-.15.17-.32.32-.51.47-1.14.89-1.44,1.78-.93,3.11.23.59.27,1.17.24,1.76.86.18,1.7,1.47,1.59,2.47-.14,1.18-.65,2.27-.86,3.43.4-1.2.8-2.39,1.19-3.59h0s0,0,0,0c.06-.54.29-1.09-.35-1.48-.38-.24-.01-.49.08-.71.21-.49.24-1,.26-1.51-.2-.38-.66-.57-.75-1.04-.15-.82.25-1.47,1.01-1.39,1.01.11,2.02-.14,3.01.09.54.05,1.14.33,1.53-.32-.67-1.08-1.78-1.25-2.9-1.39-.51,1.07-1.73,1.1-2.62.1Z"/>
      <path class="cls-3" d="M38.8,33.75c-.13.21-.28.4-.44.58.89,1,2.11.96,2.62-.1-.8.17-1.67.67-2.18-.48Z"/>
      <path class="cls-3" d="M37.16,39.66c0,.11-.01.21-.02.32h0c1.1,1.07,1.73,2.25,1.07,3.83-.23.55-.38,1.14-.33,1.75,0,0,0,0,0,0,.21-1.16.72-2.25.86-3.43.12-1-.73-2.28-1.59-2.47Z"/>
      <path class="cls-4" d="M42.98,36.68c.38.56.52,1.18,0,1.96-.06.09-.07.23-.08.34q-.23,1.97-1.92,1.23c-.02.42.05.88-.26,1.23-.24.28-.61.48-.92.2-.37-.33.06-.51.26-.72.16-.17.29-.36.43-.54-.34.1-.59.14-.78.14-.07.51-.24,1-.64,1.45.98.32,2,.02,3.02.2,1.47.26,2.36-.71,2.37-2.24,0-.39-.03-.77.12-1.16.47-1.2.16-2.24-.71-3.15.36,1.03-.36.95-.89,1.07Z"/>
      <path class="cls-4" d="M42.34,35.94c.24.24.46.49.64.75.54-.11,1.25-.03.89-1.07-.4.65-.99.37-1.53.32Z"/>
      <path class="cls-4" d="M39.25,39.4c.03-.4.1-.79-.19-1.13h0c-.02.51-.05,1.02-.26,1.51-.09.22-.46.47-.08.71.64.39.42.95.35,1.48h0c.39-.45.56-.94.64-1.45-.44,0-.52-.3-.46-1.13Z"/>
      <path class="cls-4" d="M40.46,44.6c-.19.03-.39.12-.52.35-.19.34-.04.63.16.88.89,1.12,1.8,2.22,2.71,3.32.32.39.72.74,1.21.34.5-.41.2-.87-.11-1.25-.86-1.04-1.75-2.06-2.62-3.09-.21-.24-.43-.47-.83-.55Z"/>
      <path class="cls-9" d="M39.01,48.08c-.45-.12-.79.28-.67.73.18.74.27,1.63,1.19,1.86.46.12.69-.26.7-.8-.31-.62-.31-1.56-1.22-1.79Z"/>
      <path class="cls-18" d="M43.06,26.53c-1.11-.57-1.44-1.37-1.57-2.55-.27-2.61-2.64-3.93-5.11-2.98-.26.1-.5.25-.78.31-.76.16-1.36-.12-1.72-.78-.37-.67-.22-1.31.36-1.83.54-.49,1.23-.73,1.87-1.05,1.06-.52,1.27-1.19.69-2.22-.43-.77-1.09-1.23-1.95-1.45-1.53-.39-1.92-1.13-1.45-2.64.07-.23.16-.45.2-.69.09-.58.06-1.14-.43-1.53-.51-.41-1.05-.26-1.57,0-.18.09-.35.2-.52.3-1.44.85-1.46.85-2.69-.24-.33-.29-.66-.59-1.08-.74-.65-.24-1.26-.2-1.79.27-.53.47-.65,1.07-.47,1.75.12.43.34.81.51,1.21.6,1.46.52,2.9-.09,4.3.68.06,1.35.3,1.67.83.72,1.19,1.83,1.6,3.03,2.05,1.19.45,1.73,1.51,1.76,2.77.02.66-.16,1.34-1,1.38-.8.04-.98-.54-.96-1.21.02-.63-.24-1.07-.81-1.34-.67-.31-.91.15-1.21.61-.22.33-.58.42-.96.31-.39-.11-.6-.39-.62-.79-.01-.32,0-.64.01-.96.06-1.18-.6-1.77-1.68-1.95-1.95-.33-3.63.24-5.08,1.56-.15.13-.28.28-.42.42-.45.44-.98.65-1.48.17-.51-.5-.25-1.04.14-1.49,1.02-1.18,2.3-1.98,3.81-2.37.52-.13,1-.3,1.3-.75-.03-.02-.06-.04-.08-.07-.38-.38-.11-.83-.13-1.25-.07-1.54-1.25-2.18-2.58-1.4-.53.31-.86.82-1.28,1.24-.52.51-1.17.53-1.78.26-.41-.18-.74-.51-.58-1.02-.2-.03-.36-.19-.52-.37-.26-.3-.48-.64-.8-.89-.26-.2-.55-.37-.88-.2-.34.17-.33.51-.32.83.04,2-.41,2.38-2.4,2-1.27-.24-2.38.15-2.85,1.01-.23.44-.39.92-.08,1.36.33.47.79.22,1.2.11,2.59-.69,4.67.04,5.83,2.04.39.67.6,1.4.6,2.17,0,.9-.6,1.62-1.37,1.7-.94.11-1.52-.29-1.71-1.25-.17-.83-.55-1.53-1.48-1.68-.9-.14-1.51.34-2.03,1.02-1.06,1.37-1.54,1.46-2.97.57-1.24-.77-2.13-.47-2.59.9-.17.5-.34.96-.73,1.35-.79.81-.78,1.16.03,2,.19.2.37.4.52.62.26-.36.62-.6,1.02-.8,2.96-1.51,6.07-2.4,9.42-2.44,6.04-.07,12.05.17,17.99,1.35,3.21.64,6.14,2,8.92,3.68.38.23.74.5.92.91.2-.14.44-.22.66-.35,1.02-.57,1.13-1.62.11-2.14Z"/>
      <path class="cls-18" d="M42.29,29.02c-.19-.41-.54-.68-.92-.91-2.79-1.68-5.71-3.04-8.92-3.68-5.94-1.19-11.95-1.43-17.99-1.35-3.35.04-6.46.93-9.42,2.44-.4.2-.77.44-1.02.8.09.13.19.26.25.42,2.93-1.96,6.23-2.82,9.68-3.06,4.43-.31,8.84.22,13.24.58,2.46.2,4.93.55,7.27,1.36,2.66.93,5.36,1.84,7.49,3.83.08-.2.21-.32.35-.41Z"/>
      <path class="cls-18" d="M25.57,11.68c-.17-.41-.39-.79-.51-1.21-.19-.67-.06-1.27.47-1.75.53-.47,1.15-.51,1.79-.27.42.15.75.45,1.08.74,1.23,1.08,1.25,1.08,2.69.24.17-.1.34-.21.52-.3.52-.27,1.06-.42,1.57,0,.49.4.53.95.43,1.53-.04.24-.13.46-.2.69-.47,1.51-.08,2.25,1.45,2.64.87.22,1.52.68,1.95,1.45.58,1.03.37,1.7-.69,2.22-.64.31-1.33.56-1.87,1.05-.58.52-.73,1.16-.36,1.83.36.65.95.94,1.72.78.28-.06.52-.21.78-.31,2.47-.95,4.84.37,5.11,2.98.12,1.19.45,1.98,1.57,2.55,1.02.52.91,1.57-.11,2.14-.22.12-.46.21-.66.35.03.07.07.13.09.21.02.07.04.13.06.19.19,0,.38-.01.56-.06.91-.22,1.46-.81,1.56-1.75.08-.82-.29-1.47-1.06-1.67-1.06-.29-1.28-.94-1.34-1.94-.21-3.1-3.15-4.85-5.98-3.62-.15.06-.29.14-.43.21-.54.24-1.05.22-1.34-.35-.3-.58.03-.99.51-1.3.61-.38,1.27-.68,1.99-.79.69-.11.9-.5.93-1.16.08-1.86-.97-3.2-2.92-3.65-1.19-.27-1.38-.63-.91-1.76.14-.33.29-.67.34-1.02.14-.93-.07-1.78-.91-2.3-.78-.48-1.53-.19-2.22.3-1.44,1.02-1.45,1.01-2.78-.26-.93-.89-2.34-1-3.29-.26-.95.75-1.14,1.94-.54,3.08.65,1.23,1.01,2.52.59,3.92-.09.32-.16.62.05.91.08,0,.16.02.23.02.61-1.41.68-2.84.09-4.3Z"/>
      <path class="cls-18" d="M16.56,13c-.16.51.17.84.58,1.02.61.27,1.26.25,1.78-.26.42-.42.75-.93,1.28-1.24,1.33-.78,2.5-.14,2.58,1.4.02.42-.26.87.13,1.25.03.02.06.04.08.07.04-.07.1-.12.13-.2,0,0,0,0,0,0,.53-1.37.28-2.79-.6-3.37-.82-.55-2.31-.22-3.27.72-.2.19-.37.42-.55.63-.64.75-1.24.84-1.76-.12h0c-.15.1-.27.12-.38.11Z"/>
      <path class="cls-18" d="M42.38,29.23c-.02-.08-.06-.14-.09-.21-.15.1-.28.22-.35.41.17,0,.34,0,.51-.01-.02-.06-.04-.13-.06-.19Z"/>
      <path class="cls-18" d="M3.48,25.68c-.81-.84-.82-1.19-.03-2,.38-.39.56-.85.73-1.35.46-1.36,1.35-1.66,2.59-.9,1.44.89,1.91.81,2.97-.57.52-.67,1.13-1.16,2.03-1.02.93.15,1.31.85,1.48,1.68.19.96.77,1.36,1.71,1.25.77-.09,1.37-.8,1.37-1.7,0-.77-.22-1.5-.6-2.17-1.15-2-3.23-2.73-5.83-2.04-.42.11-.88.36-1.2-.11-.31-.45-.15-.93.08-1.36.46-.86,1.58-1.25,2.85-1.01,1.99.38,2.44,0,2.4-2,0-.33-.02-.66.32-.83.33-.17.62,0,.88.2.32.24.54.59.8.89.16.18.32.34.52.37.01-.04.02-.08.04-.13.06-.06.13-.11.19-.17-.4-.55-.77-1.12-1.24-1.6-.52-.53-1.19-.85-1.95-.4-.75.46-.42,1.1-.25,1.71.34,1.22-.08,1.65-1.31,1.41-.39-.08-.79-.17-1.18-.17-1.86,0-3.02,1.05-3.07,2.77-.05,1.71.26,1.93,1.75,1.23,2.82-1.34,6.18.47,6.13,3.3-.01.6-.13,1.16-.85,1.23-.72.07-.99-.39-1.04-1.03-.1-1.22-.76-1.88-1.98-2.01-1.17-.12-1.98.42-2.62,1.35-.8,1.16-1.09,1.2-2.17.37-1.53-1.18-3.1-.63-3.47,1.25-.11.54-.26.96-.8,1.23-1,.51-1.14,1.05-.49,1.97.4.58.9,1.06,1.56,1.3.05-.11.11-.2.17-.3-.15-.22-.33-.42-.52-.62Z"/>
      <path class="cls-18" d="M3.83,26.6c.14.05.27.1.42.12-.06-.16-.16-.29-.25-.42-.06.09-.13.19-.17.3Z"/>
      <path class="cls-18" d="M16.56,13c.11.01.23,0,.38-.11h0c-.05-.06-.09-.13-.14-.2-.06.06-.13.11-.19.17-.02.05-.03.09-.04.13Z"/>
      <path class="cls-21" d="M18.93,45.96c0-.47-.02-.95-.03-1.42-.36-1.28-.35-2.55,0-3.83-.07-2.07-.14-4.14-.21-6.21-.09-2.67-.06-5.34.29-7.99.09-.69-.11-.95-.8-.95-1.35.01-2.71,0-4.06,0-.97,0-1.4.44-1.38,1.45.04,1.58-.03,3.16-.05,4.74.13.48.2,1.01.16,1.49.53,5.16.59,10.35.81,15.53.08,1.78-.07,3.58.3,5.34,1.35-.05,2.7.13,4.01.37.99.18,1.31-.13,1.19-1.06-.45-2.47-.21-4.96-.24-7.45Z"/>
      <path class="cls-11" d="M26.37,27.78c-.06-.97-.34-1.41-1.37-1.51-1.47-.15-2.94-.2-4.41-.2-.3,1.29-.42,2.59-.46,3.91-.13,4.39.24,8.76.32,13.15.05,2.87-.05,5.74-.09,8.61.05.47.09.95.16,1.42.25,1.64.31,1.68,1.96,1.69.32,0,.64,0,.96-.02.63-.02.93-.35.98-.97.08-1.07.17-2.14.26-3.22.37-4.4.71-8.81,1.13-13.21.31-3.21.77-6.41.58-9.65Z"/>
      <path class="cls-20" d="M30.24,44.48c-1.32-.26-2.17-1.51-2.19-3.03-.02-1.37.46-1.93,1.96-2.43.48-.16.92-.45,1.38-.68.09-.17.19-.34.28-.51-1.08.1-1.23-1.5-2.44-1.31-.63.1-.92-.63-1-1.14-.11-.66.5-.55.93-.55.12,0,.24.01.36-.01.72-.16,1.62-.14,1.77-1.12.14-.96-.57-1.44-1.3-1.81-.57-.29-1.04-.33-1.38-.13.02.17.02.34.06.52.24,1.18-.63,2.19-.66,3.34,0,.38-.03.77-.05,1.15.02.04.02.07.04.11.06.11,0,.31-.07.44-.11,1.99-.33,3.96-.48,5.95-.03.42-.13.84-.21,1.25.1.09.22.18.38.25.23.11.01.43-.19.58-.08.06-.17.12-.25.18.01.15.04.29.08.44-.52,2.22-.48,4.5-.7,6.75-.09.96.38,1.38,1.44,1.52,1.27.17,1.8-.07,2.02-1.09.41-1.91.47-3.87.77-5.79.11-.68.01-1.47.72-1.93-.22-.52-.61-.84-1.27-.97Z"/>
      <path class="cls-20" d="M28.01,35.63c.02-1.15.89-2.16.66-3.34-.03-.17-.04-.35-.06-.52-.31.18-.5.56-.53,1.14-.02.55-.17,1.11-.27,1.66-.04.31-.07.61-.11.92-.01.43.05.86.26,1.29.02-.38.04-.77.05-1.15Z"/>
      <path class="cls-20" d="M27.94,37.33s0,0,0,.01c-.29.47-.46.95-.58,1.45-.04.41-.1.82-.18,1.23-.05.81-.01,1.63-.03,2.44-.01.65-.54,1.49.1,2.08.07-.42.17-.83.21-1.25.15-1.98.37-3.96.48-5.95Z"/>
      <path class="cls-20" d="M30.79,47.37c-.3,1.92-.35,3.88-.77,5.79-.22,1.02-.75,1.26-2.02,1.09-1.05-.14-1.53-.56-1.44-1.52.21-2.25.18-4.53.7-6.75-.04-.15-.07-.29-.08-.44-.21.15-.41.3-.62.45-.23,2.42-.48,4.84-.68,7.26-.13,1.56-.1,1.56,1.42,1.65.72.04,1.44.05,2.15.12.81.07,1.11-.27,1.19-1.08.29-2.74.65-5.46.98-8.19-.03-.11-.08-.2-.12-.29-.7.45-.61,1.24-.72,1.93Z"/>
      <path class="cls-10" d="M12.21,47.19s0,0,0,0c0-.08,0-.17,0-.25-.16-3.76-.18-7.53-.73-11.27-.7-.29-1.03-.68-.82-1.56.31-1.34-.14-1.85-1.53-2.07q-.64-.1-.87-1.86c-.71.51-.31,1.76-1.35,1.9,0,0,0,0,0,0,0,0,0,0,0,0,0,.76.17,1.5.31,2.25.66,3.41,1.25,6.84,1.87,10.25.48,2.63.92,5.27,1.72,7.83.25.79.61,1.51,1.63,1.48,0,0,0,0,0,0,.16-2.24-.34-4.46-.22-6.7Z"/>
      <path class="cls-10" d="M36.96,34.76c.37-.31.67-.86,1.17-1.02.02-.18.09-.37.14-.56.59-2.24.13-3.08-2.03-3.76-.92-.29-1.25-.09-1.36.89-.24,2.26-.46,4.52-.72,6.78-.05.42-.11.83-.29,1.2.56.42.89,1.06,1.43,1.49.33.26.71.46,1.11.58.02-.08.05-.15.07-.23.09-.21.2-.37.4-.45-1.04-1.29-1.1-3.93.08-4.93Z"/>
      <path class="cls-10" d="M34.16,37.08c.27-2.26.48-4.52.72-6.78.11-.98.44-1.18,1.36-.89,2.16.68,2.62,1.52,2.03,3.76-.05.19-.12.38-.14.56.19-.06.41-.07.67.01.16-.66.27-1.33.5-1.97.29-.82.04-1.31-.66-1.8-1-.69-2.1-1.14-3.18-1.64-.7-.32-1.12-.03-1.14.68-.09,3.03-.74,6.01-.76,9.04h0c.12.06.21.14.31.22.18-.37.24-.78.29-1.2Z"/>
      <path class="cls-10" d="M36.48,40.13c-.02.08-.05.15-.07.23.16.05.32.08.49.11h0c.08-.16.16-.32.24-.47h0c-.1-.09-.18-.2-.26-.31-.19.07-.31.24-.4.45Z"/>
      <path class="cls-10" d="M38.13,33.74c-.5.16-.8.7-1.17,1.02-1.17.99-1.11,3.64-.08,4.93.06-.02.13-.04.2-.04.03,0,.05.02.08.02.03-.59,0-1.17-.24-1.76-.52-1.32-.22-2.22.93-3.11.19-.14.35-.3.51-.47-.01-.01-.03-.02-.04-.04-.18-.18-.21-.36-.19-.55Z"/>
      <path class="cls-10" d="M38.13,33.74c-.02.19.01.37.19.55.01.01.03.02.04.04.16-.18.31-.37.44-.58-.26-.09-.48-.07-.67-.01Z"/>
      <path class="cls-10" d="M37.08,39.64c-.08,0-.14.02-.2.04.08.11.16.22.26.31.01-.11.01-.22.02-.32-.03,0-.05-.02-.08-.02Z"/>
      <path class="cls-19" d="M30.75,35.18c-.28.12-.62.13-.91.46.52.28.84.81,1.32,1.01.2.08.35.17.48.27.04-.92.11-1.84.19-2.75-.17.42-.53.77-1.08,1.01Z"/>
      <path class="cls-19" d="M31.86,32.98c.03.09.04.17.05.25.08-.88.16-1.75.22-2.63.03-.44.09-.88.07-1.32-.06-1.42-1.26-2.31-2.65-1.96-.72.19-.92.75-.9,1.38.03.83-.09,1.66-.09,2.49.11-.05.24-.1.39-.13,1.05-.18,2.58.85,2.89,1.91Z"/>
      <path class="cls-19" d="M26.77,44.23c.21-1.18-.04-2.38.26-3.51.06-.23.11-.47.15-.71.03-.41.08-.82.18-1.23.06-.53.1-1.06.14-1.56.05-.58.13-1.16.21-1.73,0-.31.05-.61.11-.92.06-.54.11-1.09.11-1.63,0-.65-.03-1.41.65-1.74,0-.83.11-1.66.09-2.49-.02-.63.18-1.19.9-1.38,1.38-.36,2.59.53,2.65,1.96.02.44-.04.88-.07,1.32-.06.88-.14,1.76-.22,2.63.06.34.03.65-.08.93-.08.92-.15,1.83-.19,2.75.32.24.46.53.47.87.09-.4-.03-.91.2-1.23,0,0,0,0,0,0,.13-1.83.22-3.66.4-5.49.4-4.17.42-4.13-3.75-4.58-.95-.1-1.07.21-1,1.02.18,2.08,0,4.15-.27,6.21-.52,4.08-.98,8.16-1.13,12.27.4-.56.1-1.21.2-1.76Z"/>
      <path class="cls-19" d="M28.61,31.77c.34-.2.81-.16,1.38.13.73.38,1.44.86,1.3,1.81-.14.98-1.04.96-1.77,1.12-.11.03-.24.01-.36.01-.43,0-1.04-.11-.93.55.08.5.37,1.24,1,1.14,1.22-.19,1.36,1.4,2.44,1.31-.09.17-.19.34-.28.51.33-.04.5-.16.61-.31-.11-.26-.22-.59-.37-1.04,0-.03,0-.05,0-.08-.13-.1-.28-.19-.48-.27-.48-.19-.8-.72-1.32-1.01.29-.33.63-.34.91-.46.55-.24.91-.59,1.08-1.01.03-.31.05-.62.08-.93-.02-.08-.03-.17-.05-.25-.31-1.06-1.84-2.09-2.89-1.91-.16.03-.28.07-.39.13,0,.19.02.38.04.57Z"/>
      <path class="cls-19" d="M27.63,44.78c-.16-.08-.28-.16-.38-.25-.06.34-.09.67-.06,1.01.08-.06.17-.12.25-.18.2-.15.42-.47.19-.58Z"/>
      <path class="cls-19" d="M28,36.89s-.03-.07-.04-.11c0,.18-.01.36-.02.55.07-.12.12-.33.07-.44Z"/>
      <path class="cls-19" d="M27.25,44.52c-.64-.59-.11-1.42-.1-2.08.01-.81-.02-1.63.03-2.44-.04.24-.09.47-.15.71-.3,1.13-.04,2.33-.26,3.51-.1.55.2,1.2-.2,1.76.21-.15.41-.3.62-.45-.03-.34,0-.68.06-1.01Z"/>
      <path class="cls-19" d="M27.94,37.33c.01-.18.01-.36.02-.55-.21-.43-.27-.86-.26-1.29-.08.58-.16,1.16-.21,1.73-.04.5-.08,1.03-.14,1.56.12-.49.29-.98.58-1.45,0,0,0,0,0-.01Z"/>
      <path class="cls-19" d="M31.91,33.24c-.03.31-.05.62-.08.93.11-.28.14-.59.08-.93Z"/>
      <path class="cls-19" d="M28.61,31.77c-.02-.19-.04-.38-.04-.57-.67.32-.65,1.08-.65,1.74,0,.55-.05,1.09-.11,1.63.11-.55.25-1.11.27-1.66.03-.58.22-.96.53-1.14Z"/>
      <path class="cls-19" d="M32,38.04c.05-.07.09-.16.11-.24,0-.34-.15-.63-.47-.87,0,.03,0,.05,0,.08.15.45.26.78.37,1.04Z"/>
      <path class="cls-13" d="M19.46,50.64c-.16-.33-.03-.56.23-.79,0-.34.01-.68.02-1.02.03-3.82.1-7.63-.11-11.45-.18-3.33-.28-6.68.14-10.01.08-.6.27-1.06.85-1.31-.88,0-1.34-1.24-2.05-1.02-1.47.45-3.02-.28-4.41.5,1.43-.43,2.91.19,4.36-.27.44-.14.88.29.98.85.05.32.07.64.04.95-.54,4.5.01,9,0,13.5,0,1.36-.01,2.72,0,4.08.01,2.92-.07,5.84-.34,8.74.36-.58.62-1.24,1.18-1.67-.3-.3-.47-.63-.56-.98-.12.06-.27.01-.34-.12Z"/>
      <path class="cls-13" d="M19.51,40.58c0-4.5-.55-9,0-13.5.04-.31.02-.64-.04-.95-.1-.55-.54-.99-.98-.85-1.45.46-2.93-.16-4.36.27,1.35,0,2.71.02,4.06,0,.68,0,.88.26.8.95-.35,2.65-.37,5.32-.29,7.99.07,2.07.14,4.14.21,6.21.16,1.28.17,2.55,0,3.83,0,.47.02.95.03,1.42.03,2.48-.21,4.98.24,7.45.27-2.91.35-5.82.34-8.74-.01-1.36,0-2.72,0-4.08Z"/>
      <path class="cls-13" d="M20.44,43.12c-.08-4.38-.45-8.76-.32-13.15.04-1.31.16-2.62.46-3.91-.58.24-.77.71-.85,1.31-.42,3.33-.32,6.68-.14,10.01.2,3.82.13,7.63.11,11.45,0,.33-.02.68-.02,1.02.06-.06.13-.11.2-.17.29.42.27.75-.02,1.03-.02.02-.05.03-.07.04.09.35.26.68.56.98.03-2.87.14-5.74.09-8.61Z"/>
      <path class="cls-3" d="M34.81,40.17c-.5-.42-.92-.95-1.13-1.59-.01.02-.02.04-.04.06-.92.2-1.21.24-1.51-.33-.03.07-.08.13-.13.16-.03.1-.06.19-.1.29-.49.34-1.03.62-1.59.81-.91.3-1.56.81-1.59,1.85-.04,1.02.61,2.01,1.64,2.42.49.19.95.37,1.32.78.21.24.29.45.25.66.42-.11.84-.12,1.25.16.09.13.16.26.21.39.56-.29,1.12-.69,1.67-.28.14-.56.34-1.09.66-1.58.42-.64.67-1.35.5-2.13-.08-.36-.03-.69.06-1.02-.55.12-1.03-.3-1.46-.65ZM35.56,42.81c-.12.69-.63.98-1.27,1.08-.93.14-1.96.65-2.46-.75-.11-.32-.53-.3-.86-.23-1.19.25-1.24-.67-1.5-1.41.07-.24.07-.6.21-.67.73-.39,1.47-.76,2.25-1.03.94-.33,1.61.04,2,.97.13.31.5.36.79.5.64.31.98.81.85,1.55Z"/>
      <path class="cls-3" d="M36.22,41.85c.18.78-.08,1.49-.5,2.13-.32.49-.52,1.02-.66,1.58.13.1.27.23.4.43h0s0,0,0,0c.77-1.6,1.8-3.12,1.37-5.05-.03-.14.04-.31.07-.47-.22.21-.43.32-.63.36-.09.33-.14.66-.06,1.02Z"/>
      <path class="cls-3" d="M33.17,45.44c-.41-.28-.83-.27-1.25-.16-.03.15-.11.3-.3.45.49,0,.97.04,1.42.25.11-.04.22-.1.33-.15-.05-.13-.12-.26-.21-.39Z"/>
      <path class="cls-3" d="M32.22,37.94c-.01.16-.04.28-.09.38.3.58.59.53,1.51.33.01-.02.02-.04.04-.06-.05-.17-.1-.34-.13-.52,0,0,0,0,0,0-1.64.51-1-.85-1.24-1.5,0,0,0,0,0,0-.19.45-.06.92-.1,1.38Z"/>
      <path class="cls-3" d="M31.67,44.62c-.37-.41-.83-.59-1.32-.78-1.02-.4-1.67-1.39-1.64-2.42.04-1.04.68-1.55,1.59-1.85.57-.19,1.1-.47,1.59-.81.04-.1.07-.2.1-.29-.14.09-.33.06-.61-.13-.46.23-.9.52-1.38.68-1.5.49-1.98,1.05-1.96,2.43.02,1.52.87,2.77,2.19,3.03.66.13,1.04.44,1.27.97.03-.02.05-.04.09-.06.11-.04.22-.07.32-.1.04-.21-.04-.42-.25-.66Z"/>
      <path class="cls-3" d="M31.6,45.38s-.06.04-.09.06c.04.1.09.18.12.29.18-.15.27-.3.3-.45-.11.03-.22.06-.32.1Z"/>
      <path class="cls-3" d="M33.87,38.28c-.05.1-.11.21-.18.3.21.64.63,1.16,1.13,1.59.43.36.91.77,1.46.65.04-.16.09-.31.14-.47-.41-.12-.78-.32-1.11-.58-.54-.43-.88-1.07-1.43-1.49Z"/>
      <path class="cls-3" d="M36.41,40.36c-.05.16-.1.31-.14.47.2-.04.41-.15.63-.36h0c-.17-.02-.33-.06-.49-.11Z"/>
      <path class="cls-3" d="M33.87,38.28c-.1-.08-.19-.16-.31-.22.02.18.07.35.13.52.07-.1.13-.2.18-.3Z"/>
      <path class="cls-3" d="M32.13,38.31s-.04-.08-.06-.12c-.02.09-.04.19-.07.29.05-.04.1-.09.13-.16Z"/>
      <path class="cls-3" d="M32.07,38.19s.04.08.06.12c.04-.1.07-.22.09-.38.04-.46-.09-.93.1-1.38-.24.32-.11.84-.2,1.23,0,.13-.01.26-.04.4Z"/>
      <path class="cls-3" d="M31.39,38.35c.27.19.47.22.61.13.03-.1.05-.19.07-.29-.02-.05-.04-.1-.07-.15-.11.15-.28.27-.61.31Z"/>
      <path class="cls-3" d="M32.07,38.19c.03-.14.04-.27.04-.4-.02.09-.06.17-.11.24.02.06.05.1.07.15Z"/>
      <path class="cls-12" d="M13.08,50.9c0-.7,0-1.4,0-2.11-.07.06-.15.07-.21.04,0,.94.02,1.88.15,2.82.11.82-.25,1.53-.6,2.24h0c.59-.47,1.01.32,1.54.21-.94-.88-.89-2.1-.89-3.2Z"/>
      <path class="cls-12" d="M12.04,35.73c.37,1.35.48,2.74.49,4.11.02,2.27.3,4.52.33,6.78.06,0,.12.02.18.06-.01-.2-.02-.39-.03-.59-.27-3.23,0-6.47-.5-9.68-.14-.87-.15-1.69.22-2.57.08-.19.12-.41.14-.63-.05-.5-.1-.99-.16-1.49-.01.39-.03.78-.03,1.17-.02.94-.43,1.1-1.18.59,0,.55,0,1.1,0,1.65.13.21.31.41.56.58Z"/>
      <path class="cls-12" d="M12.86,33.23c-.02.22-.06.44-.14.63-.37.88-.35,1.7-.22,2.57.5,3.21.23,6.45.5,9.68.02.19.02.39.03.59.08.06.15.16.21.32.22.56.31,1.21-.08,1.71-.02.03-.05.05-.07.07,0,.7,0,1.41,0,2.11,0,1.1-.06,2.31.89,3.2-.38-1.76-.23-3.56-.3-5.34-.22-5.18-.28-10.37-.81-15.53Z"/>
      <path class="cls-12" d="M13.02,51.66c-.13-.94-.15-1.88-.15-2.82-.14-.05-.25-.23-.31-.39-.14-.41-.25-.84-.36-1.26-.12,2.24.38,4.46.22,6.7.34-.71.71-1.41.6-2.24Z"/>
      <path class="cls-12" d="M12.85,46.63c-.03-2.26-.31-4.52-.33-6.78,0-1.37-.12-2.76-.49-4.11-.25-.17-.43-.37-.56-.58,0,.17,0,.34,0,.51.55,3.74.57,7.51.73,11.27.22-.17.45-.32.65-.31Z"/>
      <path class="cls-14" d="M8.08,29.44c.48-.04.75.29.87.67.22.69.53,1.12,1.33,1.3.77.18.7,1.08.75,1.69.03.35.05.69.1,1.02.06-.21.17-.42.35-.62-.36-1.97-.2-3.96-.24-5.95-.01-.63-.06-1.2-.97-1.12-3.42.31-4.38,1.57-3.61,4.84.06.27.16.53.25.79.28-.54.3-1.15.41-1.73.08-.46.23-.86.78-.9Z"/>
      <path class="cls-14" d="M8.25,30.18q.23,1.76.87,1.86c1.39.23,1.84.73,1.53,2.07-.2.88.12,1.26.82,1.56-.33-.51-.5-1.02-.35-1.53-.05-.33-.07-.67-.1-1.02-.05-.61.02-1.52-.75-1.69-.8-.18-1.11-.62-1.33-1.3-.12-.39-.39-.71-.87-.67-.55.04-.69.45-.78.9-.11.58-.13,1.19-.41,1.73,0,0,0,0,0,0,1.04-.15.65-1.39,1.35-1.9Z"/>
      <path class="cls-14" d="M11.48,35.16c0-.55,0-1.1,0-1.65-.18.21-.29.42-.35.62.05.37.15.71.35,1.03Z"/>
      <path class="cls-14" d="M11.13,34.13c-.15.51.02,1.02.35,1.53,0-.17,0-.34,0-.51-.2-.31-.29-.66-.35-1.03Z"/>
      <path class="cls-11" d="M33.47,46.12c.21.84-.11,1.72-.16,2.57-.07,1.3-.35,2.59-.29,3.92.88-2.13,1.13-4.43,1.89-6.59-.48.07-.96.19-1.44.1Z"/>
      <path class="cls-11" d="M33.02,52.6c-.06-1.33.23-2.61.29-3.92.04-.85.37-1.72.16-2.57-.14-.03-.28-.06-.42-.13-.28,2.41-.56,4.83-.84,7.24-.05.46-.26,1.05.38,1.22.66.17.9-.38,1.03-.91.62-2.51,1.23-5.03,1.85-7.55-.18,0-.36,0-.55.03-.76,2.16-1.01,4.46-1.89,6.59Z"/>
      <path class="cls-11" d="M33.39,45.83c.04.1.06.19.09.29.48.09.96-.04,1.44-.1.02-.07.04-.13.07-.2.02-.09.06-.18.08-.27-.56-.41-1.12-.01-1.67.28Z"/>
      <path class="cls-11" d="M33.39,45.83c-.11.06-.22.11-.33.15.14.07.28.11.42.13-.02-.1-.05-.19-.09-.29Z"/>
      <path class="cls-11" d="M35.06,45.55c-.02.09-.06.17-.08.27-.02.07-.04.13-.07.2.18-.03.36-.04.55-.03h0c-.13-.21-.27-.34-.4-.43Z"/>
      <path class="cls-8" d="M22.77,16.27c-.56.33-1.22.38-1.8.65-.9.41-1.82.81-2.34,1.83.52.25.79-.13,1.07-.34,1.37-1.02,2.87-1.49,4.6-1.34,1.67.14,2.37.66,2.65,2.31.12.7.28,1.02,1.08.6.94-.49,1.7-.13,2.31.85.18.29.14.72.53.9.38-.79.32-1.6-.56-1.93-1.75-.68-3.04-1.91-4.42-3.07-.18-.15-.42-.23-.55-.41-.48.36-.86.1-1.23-.22-.24-.21-.5-.4-.76-.59.04.32-.21.56-.57.77Z"/>
      <path class="cls-8" d="M24.1,16.09c.37.32.75.57,1.23.22-.06-.09-.11-.19-.09-.35-.79-.11-1.2-1.12-2.12-.93,0,0,0,0,0,0,.14.18.2.33.22.47.26.19.52.38.76.59Z"/>
      <path class="cls-8" d="M21.69,15.98c-1.51.39-2.79,1.18-3.81,2.37-.39.45-.66.99-.14,1.49.5.48,1.03.28,1.48-.17.14-.14.28-.29.42-.42,1.45-1.32,3.13-1.89,5.08-1.56,1.08.18,1.74.77,1.68,1.95-.02.32-.03.64-.01.96.02.4.23.68.62.79.38.11.74.02.96-.31.29-.45.54-.92,1.21-.61.57.27.84.71.81,1.34-.02.67.16,1.25.96,1.21.84-.04,1.01-.72,1-1.38-.03-1.25-.57-2.31-1.76-2.77-1.19-.45-2.3-.86-3.03-2.05-.32-.53-.99-.77-1.67-.83-.05.11-.09.21-.14.32,0,0,0,0,0,0,.13.18.37.26.55.41,1.38,1.16,2.67,2.39,4.42,3.07.88.34.94,1.14.56,1.93-.39-.18-.34-.61-.53-.9-.61-.98-1.38-1.33-2.31-.85-.81.42-.96.1-1.08-.6-.28-1.64-.98-2.17-2.65-2.31-1.73-.14-3.23.32-4.6,1.34-.28.21-.55.59-1.07.34.52-1.02,1.44-1.42,2.34-1.83.58-.27,1.24-.32,1.8-.65.36-.21.61-.45.57-.77-.12-.09-.23-.18-.35-.27-.3.45-.78.61-1.3.75Z"/>
      <path class="cls-8" d="M23.34,15.5c-.02-.14-.08-.29-.22-.47-.04.08-.09.13-.13.2.12.09.23.18.35.27Z"/>
      <path class="cls-8" d="M25.34,16.3c.05-.11.09-.21.14-.32-.08,0-.16-.02-.23-.02-.02.16.03.26.09.35,0,0,0,0,0,0Z"/>
      <path class="cls-18" d="M7.82,4.12c-.13,1.86.04,2.01,1.55,1.6.39-.11.7-.02.98.26.28.28.62.37.99.18.45-.23.43-.65.34-1.05-.11-.49-.08-.94.13-1.4.3-.64.27-1.23-.34-1.71-.78-.62-2.35-.76-3.19-.28-.73.42-.76,1.04-.55,1.76.09.3.08.62.08.64Z"/>
      <path class="cls-16" d="M44.66,52.47c-1.13-.22-2.9.38-3.1.97-.14.43.01.79.31,1.08.25.25.51.46.63.83.22.7,2.2,1.72,2.91,1.55.31-.08.52-.32.46-.61-.16-.79-.25-1.56.12-2.25-.16-.84-.55-1.43-1.34-1.58Z"/>
      <path class="cls-16" d="M42.18,12.33c1.07.53,2.16,1.07,3.3,1.48.03.01.08,0,.19-.03.12-.01.32-.02.52-.04.46-.07,1.07,0,1.18-.58.12-.59-.43-.78-.88-.96-.34-.14-.63-.29-.82-.64-.84-1.6-.85-1.6-2.42-.87-.21.1-.45.15-.68.22-.83.25-1.13,1.06-.4,1.42Z"/>
      <path class="cls-17" d="M51.09,18.9c-.43-.08-.85-.16-1.18-.5-.58-.58-1.35-.61-1.8-.05-.51.64-.82,1.54-.58,2.4.13.45.65.55,1.12.37.34-.13.66-.23,1.04-.12.46.13,1.18.71,1.26-.22.06-.63.45-.96.65-1.39-.05-.36-.27-.44-.51-.48Z"/>
      <path class="cls-16" d="M40.65,40.25s.04.08.05.04c.01-.11.01-.22.06-.33,1.73-.68,2.03-1.31,1.49-3.29-.75-.16-1.52,0-2.28-.06-.64-.06-.83.37-.59.95.1.26.32.46.4.73,0,.05,0,.1,0,.15.04.09.07.2.08.32.06.63.45,1.05.8,1.5Z"/>
      <path class="cls-16" d="M39.77,38.44s0-.1,0-.15c-.07-.28-.29-.47-.4-.73-.23-.58-.05-1.01.59-.95.76.07,1.53-.1,2.28.06,0-.02,0-.03-.01-.05-.07-.27,0-.46.11-.67-.99-.24-2,.02-3.01-.09-.76-.08-1.16.57-1.01,1.39.08.47.54.66.75,1.04h0c.38-.2.59-.08.7.16Z"/>
      <path class="cls-16" d="M42.25,36.66c.54,1.98.24,2.62-1.49,3.29-.05.11-.05.22-.06.33,0,.04-.02-.04-.05-.04-.35-.45-.74-.87-.8-1.5-.01-.12-.04-.23-.08-.32-.02.7.05,1.41-.05,2.09.19,0,.43-.05.78-.14.16-.06.32-.11.48-.17q1.69.75,1.92-1.23c.01-.12.02-.25.08-.34.52-.78.39-1.4,0-1.96-.11.02-.22.05-.31.11-.14-.06-.29-.1-.43-.13Z"/>
      <path class="cls-16" d="M42.23,36.61s0,.03.01.05c.14.03.29.07.43.13.08-.05.19-.08.31-.11-.18-.26-.4-.5-.64-.75-.11.21-.18.41-.11.67Z"/>
      <path class="cls-16" d="M39.25,39.4c-.06.83.02,1.13.46,1.13.1-.68.03-1.4.05-2.09-.11-.24-.32-.36-.7-.16h0c.29.34.22.73.19,1.13Z"/>
      <path class="cls-3" d="M40.49,40.38c-.14.18-.27.38-.43.54-.2.21-.63.38-.26.72.31.28.68.07.92-.2.31-.35.24-.8.26-1.23-.13.15-.26.28-.48.17Z"/>
      <path class="cls-3" d="M40.98,40.21c-.16.06-.32.11-.48.17.22.11.36-.02.48-.17Z"/>
      <path class="cls-1" d="M18.9,44.54c-.18-1.28-.17-2.55,0-3.83-.35,1.28-.35,2.55,0,3.83Z"/>
      <path class="cls-1" d="M18.9,44.54c.16-1.28.16-2.55,0-3.83-.17,1.28-.18,2.55,0,3.83Z"/>
      <path class="cls-7" d="M12.83,47.21c-.16-.22-.43-.15-.62-.27,0,.08,0,.17,0,.25,0,0,0,0,0,0h0c.21-.13.41-.11.62.02Z"/>
      <path class="cls-7" d="M12.86,46.83c.03.13.06.27.04.41,0,.53-.02,1.06-.02,1.6.07.03.14.02.21-.04,0-.71-.02-1.41-.06-2.1-.06-.04-.12-.06-.18-.06,0,.07,0,.14,0,.2Z"/>
      <path class="cls-7" d="M13.09,48.8s.05-.04.07-.07c.4-.5.3-1.16.08-1.71-.06-.16-.13-.26-.21-.32.04.69.06,1.39.06,2.1Z"/>
      <path class="cls-7" d="M12.86,46.83c0-.07,0-.14,0-.2-.2-.02-.43.13-.65.31.19.12.46.06.62.27-.21-.13-.41-.14-.62-.02h0c.12.42.22.85.36,1.26.06.16.17.34.31.39,0-.53.01-1.06.02-1.6.02-.14,0-.28-.04-.41Z"/>
      <path class="cls-7" d="M19.46,50.64c.06.13.21.17.34.12-.08-.29-.1-.6-.11-.9-.25.23-.39.46-.23.79Z"/>
      <path class="cls-7" d="M19.87,50.71c.29-.28.31-.61.02-1.03-.08.06-.14.11-.2.17,0,.31.03.61.11.9.03-.01.05-.02.07-.04Z"/>
      <path class="cls-15" d="M34.71,41.27c-.28-.14-.66-.19-.79-.5-.39-.93-1.06-1.3-2-.97-.78.27-1.52.65-2.25,1.03-.14.08-.14.43-.21.67.26.74.31,1.67,1.5,1.41.33-.07.75-.09.86.23.5,1.4,1.53.89,2.46.75.64-.1,1.15-.38,1.27-1.08.13-.73-.21-1.23-.85-1.55Z"/>
    </g>
  </g>
</svg>