<?xml version="1.0" encoding="UTF-8"?>
<svg xmlns="http://www.w3.org/2000/svg" xmlns:xlink="http://www.w3.org/1999/xlink" viewBox="0 0 55.17 14.51">
  <defs>
    <style>
      .cls-1 {
        clip-path: url(#clippath);
      }

      .cls-2 {
        fill: none;
      }

      .cls-2, .cls-3, .cls-4, .cls-5, .cls-6, .cls-7, .cls-8, .cls-9, .cls-10, .cls-11 {
        stroke-width: 0px;
      }

      .cls-12 {
        clip-path: url(#clippath-1);
      }

      .cls-13 {
        clip-path: url(#clippath-4);
      }

      .cls-14 {
        clip-path: url(#clippath-3);
      }

      .cls-15 {
        clip-path: url(#clippath-2);
      }

      .cls-16 {
        clip-path: url(#clippath-7);
      }

      .cls-17 {
        clip-path: url(#clippath-6);
      }

      .cls-18 {
        clip-path: url(#clippath-5);
      }

      .cls-19 {
        opacity: .97;
      }

      .cls-20 {
        isolation: isolate;
      }

      .cls-3 {
        fill: #633876;
      }

      .cls-4 {
        fill: #2d6d6e;
      }

      .cls-5 {
        fill: #41224b;
      }

      .cls-6 {
        fill: #1d1d1b;
      }

      .cls-7 {
        fill: #e5007e;
      }

      .cls-8 {
        fill: #2fb6bc;
      }

      .cls-9 {
        fill: #9f948c;
      }

      .cls-10 {
        fill: #fdebdb;
      }

      .cls-11 {
        fill: #fff;
      }

      .cls-21 {
        mix-blend-mode: multiply;
        opacity: .7;
      }
    </style>
    <clipPath id="clippath">
      <rect class="cls-2" x="50.65" y=".92" width="4.27" height="12.23"/>
    </clipPath>
    <clipPath id="clippath-1">
      <rect class="cls-2" x="50.65" y=".92" width="4.27" height="12.23"/>
    </clipPath>
    <clipPath id="clippath-2">
      <rect class="cls-2" y="1.89" width="9.03" height="9.89"/>
    </clipPath>
    <clipPath id="clippath-3">
      <rect class="cls-2" y="1.89" width="9.03" height="9.89"/>
    </clipPath>
    <clipPath id="clippath-4">
      <rect class="cls-2" x="8.56" y=".9" width="8.06" height="9.76"/>
    </clipPath>
    <clipPath id="clippath-5">
      <rect class="cls-2" x="8.56" y=".9" width="8.06" height="9.76"/>
    </clipPath>
    <clipPath id="clippath-6">
      <rect class="cls-2" x="27.07" y=".76" width="24.48" height="12.28"/>
    </clipPath>
    <clipPath id="clippath-7">
      <rect class="cls-2" x="27.07" y=".76" width="24.48" height="12.28"/>
    </clipPath>
  </defs>
  <g class="cls-20">
    <g id="_Слой_2" data-name="Слой 2">
      <g id="_Слой_1-2" data-name="Слой 1">
        <g>
          <g>
            <g class="cls-19">
              <g class="cls-1">
                <g class="cls-12">
                  <path class="cls-5" d="M54.91,1.48l-1.99,8.37c-.02.09-.11.15-.21.13l-1.01-.2c-.09-.02-.16-.11-.14-.2l1.2-8.52c.01-.1.11-.17.21-.15l1.81.35c.1.02.16.12.14.22M52.89,11.16l-.36,1.84c-.02.1-.11.16-.21.14l-1.53-.3c-.1-.02-.16-.11-.14-.21l.36-1.84c.02-.1.11-.16.21-.14l1.53.3c.1.02.16.11.14.21"/>
                </g>
              </g>
            </g>
            <path class="cls-3" d="M55.17,1.34l-1.99,8.37c-.02.09-.11.15-.21.13l-1.01-.2c-.09-.02-.16-.11-.14-.2l1.2-8.52c.01-.1.11-.17.21-.15l1.81.35c.1.02.16.12.14.22M53.14,11.01l-.36,1.84c-.02.1-.11.16-.21.14l-1.53-.3c-.1-.02-.16-.11-.14-.21l.36-1.84c.02-.1.11-.16.21-.14l1.53.3c.1.02.16.11.14.21"/>
          </g>
          <g>
            <path class="cls-8" d="M35.53.61c.12,0,.25.05.33.16l7.65,11.12c.16.24,0,.55-.28.57l-20.04-.36c-.34,0-.49-.42-.23-.64L35.31.7c.06-.05.14-.08.21-.09"/>
            <path class="cls-4" d="M43.56,12.14s0,.02,0,.03c0,.01,0,.03,0,.04,0,.01,0,.03-.01.04,0,.01,0,.02-.01.03,0,0,0,0,0,.01,0,.02-.02.03-.03.05,0,0,0,0,0,0-.01.02-.03.03-.04.04,0,0,0,0-.01,0-.02.01-.03.02-.05.03,0,0,0,0,0,0-.02,0-.04.02-.06.02,0,0-.01,0-.02,0-.02,0-.04.01-.07.01l-20.04-.36c-.21,0-.35-.17-.36-.34l.02.3c.01.18.15.34.36.34l20.04.36s.05,0,.07-.01c0,0,.01,0,.02,0,.02,0,.04-.01.06-.02,0,0,0,0,0,0,.02,0,.03-.02.05-.03,0,0,0,0,.01,0,.02-.01.03-.03.04-.04,0,0,0,0,0,0,.01-.01.02-.03.03-.05,0,0,0,0,0-.01,0,0,0,0,0,0,0,0,0-.01,0-.02,0-.01.01-.03.01-.04,0,0,0,0,0,0,0,0,0-.02,0-.03,0,0,0-.02,0-.03,0,0,0,0,0,0,0-.02,0-.04,0-.06l-.02-.3s0,.04,0,.06"/>
          </g>
          <g>
            <polygon class="cls-7" points="21.66 2.09 22.69 0 23.66 .43 21.66 2.09"/>
            <polygon class="cls-8" points="22.65 2.06 25.32 .15 26.02 1.27 22.65 2.06"/>
          </g>
          <g>
            <path class="cls-3" d="M3.01.54l18.04,1.7c.3.03.41.43.18.63l-11.58,10.09c-.06.05-.12.07-.19.08-.12,0-.24-.06-.3-.18L2.74,1.07c-.13-.23.02-.52.26-.53"/>
            <path class="cls-5" d="M21.34,2.69s-.01.04-.02.06c0,0,0,0,0,.01,0,.01-.02.03-.03.04,0,0,0,.01-.01.02-.01.02-.03.03-.05.05l-11.58,10.09c-.06.05-.12.07-.19.08-.12,0-.24-.06-.3-.18L2.74,1.08c-.05-.09-.06-.19-.03-.27l-.11.45c-.02.09-.01.18.03.27l6.41,11.78c.07.12.18.18.3.18.07,0,.13-.03.19-.08L21.11,3.32s.03-.03.05-.05c0,0,0,0,.01-.02,0-.01.02-.03.03-.04,0,0,0,0,0,0,0,0,0,0,0,0,0-.02.01-.04.02-.06l.11-.45Z"/>
          </g>
          <g>
            <g class="cls-21">
              <g class="cls-15">
                <g class="cls-14">
                  <polygon class="cls-6" points="4.35 2.36 4.76 5.42 3.95 5.53 3.54 2.47 0 2.94 1.18 11.78 4.72 11.31 4.31 8.24 5.12 8.13 5.53 11.2 9.03 10.73 7.85 1.89 4.35 2.36"/>
                </g>
              </g>
            </g>
            <g class="cls-21">
              <g class="cls-13">
                <g class="cls-18">
                  <polygon class="cls-6" points="16.25 7.03 12.84 7.49 12.8 7.13 15.12 6.82 14.76 4.11 12.43 4.42 12.39 4.06 15.8 3.6 15.43 .9 8.56 1.82 9.74 10.66 16.62 9.74 16.25 7.03"/>
                </g>
              </g>
            </g>
            <polygon class="cls-8" points="4.55 2.05 4.96 5.11 4.15 5.21 3.74 2.15 .2 2.63 1.38 11.47 4.92 11 4.51 7.92 5.32 7.82 5.73 10.89 9.23 10.42 8.05 1.58 4.55 2.05"/>
            <polygon class="cls-8" points="16.45 6.72 13.04 7.18 13 6.81 15.32 6.5 14.96 3.79 12.63 4.1 12.59 3.74 15.99 3.29 15.63 .59 8.76 1.51 9.94 10.35 16.81 9.43 16.45 6.72"/>
            <path class="cls-11" d="M1.74,10.99v-.11S.68,2.99.68,2.99l2.7-.36.41,3.06,1.65-.22-.41-3.06,2.66-.35v.11s1.07,7.9,1.07,7.9l-2.66.35-.41-3.07-1.65.22.41,3.07-2.7.36ZM.91,3.17l1.01,7.58,2.28-.3-.41-3.07,2.08-.28.41,3.07,2.24-.3-1.01-7.58-2.24.3.41,3.06-2.07.28-.41-3.06-2.28.3Z"/>
            <path class="cls-11" d="M10.3,9.87v-.11s-1.07-7.89-1.07-7.89l6.03-.81.25,1.86-3.41.46.16,1.2,2.33-.31.25,1.87-2.33.31.16,1.21,3.41-.46.25,1.87h-.11s-5.93.8-5.93.8ZM9.47,2.05l1.01,7.58,5.61-.75-.19-1.45-3.41.46-.22-1.63,2.33-.31-.19-1.44-2.33.31-.22-1.63,3.41-.46-.19-1.43-5.61.75Z"/>
          </g>
          <g>
            <g class="cls-21">
              <g class="cls-17">
                <g class="cls-16">
                  <path class="cls-6" d="M32.55,11.39l-2.89-4.57s-.03-.09-.01-.13l2.29-5.45c.04-.09-.03-.19-.13-.19h-1.17c-.06,0-.11.04-.13.09l-1.57,4.09c-.06.14-.27.1-.27-.05V1.18c.01-.08-.05-.14-.13-.14h-1.09c-.08,0-.14.06-.14.14l-.02,11.5c0,.09.09.16.18.13l1.07-.33c.06-.02.1-.07.1-.13v-4.07c.01-.14.2-.19.27-.07.66,1.13,1.86,3.18,2.13,3.63.03.05.09.08.15.06l1.27-.31c.09-.02.14-.13.09-.21"/>
                  <path class="cls-6" d="M27.44,13.04c-.08,0-.15-.02-.22-.07-.09-.07-.15-.18-.14-.29l.02-11.5c0-.2.16-.36.36-.36h1.08c.2,0,.36.16.36.36v3.54s1.4-3.67,1.4-3.67c.05-.14.19-.23.34-.23h1.17c.12,0,.23.06.3.16s.08.23.03.34l-2.27,5.41,2.86,4.54c.06.1.07.22.03.33-.04.11-.14.19-.25.21l-1.27.3c-.15.04-.31-.03-.39-.17-.25-.42-1.3-2.21-1.98-3.37v3.78c-.01.16-.11.29-.26.34l-1.07.33s-.07.02-.1.02ZM27.52,12.68h0s0,0,0,0ZM27.54,1.27l-.02,11.31.91-.28v-4.02c.01-.16.12-.3.28-.35.16-.04.32.03.41.17.64,1.09,1.78,3.04,2.09,3.57l1.1-.26-2.83-4.47c-.06-.1-.07-.22-.03-.33l2.24-5.34h-.99l-1.55,4.03c-.06.17-.24.25-.4.23-.17-.03-.29-.18-.29-.36V1.27s-.91,0-.91,0ZM31.14,11.69h0,0ZM32.36,11.5s0,0,0,0h0Z"/>
                  <path class="cls-6" d="M38.58,10.86V1.22c0-.08-.06-.14-.13-.14h-.87c-.06,0-.11.04-.13.09l-2.02,5.96c-.05.15-.27.11-.27-.05l.02-5.87c0-.08-.06-.14-.14-.14h-1.09c-.08,0-.14.06-.14.14l-.05,9.92c0,.08.07.15.16.14l.98-.13c.05,0,.09-.04.11-.09.18-.51,1.22-3.35,1.93-5.33.05-.15.28-.1.27.06h0s0,.02,0,.02v5.06c0,.08.05.14.13.14h1.1c.08,0,.14-.06.14-.14"/>
                  <path class="cls-6" d="M33.9,11.5c-.08,0-.17-.03-.24-.09-.08-.07-.12-.17-.12-.27l.05-9.92c0-.2.16-.36.36-.36h1.09c.2,0,.36.16.36.36l-.02,5.37,1.86-5.48c.05-.15.19-.25.34-.25h.87c.1,0,.19.04.26.11.07.07.1.16.1.26v9.64c0,.2-.17.36-.37.36h-1.1c-.2,0-.36-.16-.36-.36v-4.61c-.69,1.93-1.59,4.41-1.76,4.88-.05.13-.16.21-.29.23l-.98.13s-.03,0-.05,0ZM33.89,11.05h0,0ZM34.03,1.3l-.05,9.74.84-.11c.22-.61,1.22-3.35,1.91-5.28.06-.17.23-.27.41-.23.18.04.3.2.29.38v4.98s.93,0,.93,0V1.3s-.72,0-.72,0l-2,5.9c-.06.17-.22.27-.4.24-.18-.03-.3-.17-.3-.36l.02-5.79h-.93ZM38.37,1.22h0s0,0,0,0Z"/>
                  <path class="cls-6" d="M44.92,11.34l-.06-10.12c0-.08-.06-.14-.14-.14h-1.09c-.08,0-.14.06-.14.14l.02,4.21c0,.08-.07.14-.15.14-.53-.03-1.06-.06-1.59-.09-.07,0-.13-.06-.13-.14V1.22c-.01-.08-.08-.14-.15-.14h-1.09c-.08,0-.14.06-.14.14l.03,9.64c0,.07.06.13.13.14l1.1.07c.08,0,.15-.06.15-.14v-4.27c-.02-.08.05-.14.13-.14.53.03,1.07.06,1.6.1.07,0,.13.07.13.14l.02,4.32c0,.06.04.12.11.14l1.09.26c.09.02.17-.05.17-.14"/>
                  <path class="cls-6" d="M44.78,11.71s-.06,0-.09-.01l-1.09-.26c-.16-.04-.28-.18-.28-.35l-.02-4.25c-.48-.03-.96-.06-1.43-.09v4.19c.02.1-.03.19-.1.26-.07.07-.18.1-.27.1l-1.1-.08c-.19-.01-.34-.17-.34-.36l-.03-9.64c0-.09.04-.19.1-.25.07-.07.16-.11.26-.11h1.09c.2,0,.36.16.36.36v4.04c.49.02.97.05,1.45.08l-.02-4.12c0-.09.04-.19.1-.25s.16-.11.26-.11h1.09c.2,0,.36.16.36.36l.06,10.12c0,.11-.05.21-.14.28-.06.05-.14.08-.22.08ZM43.77,11.02l.93.22-.05-9.94h-.92l.02,4.13c0,.1-.04.2-.11.26-.07.07-.17.1-.27.1-.53-.03-1.06-.06-1.59-.09-.19,0-.34-.17-.34-.36V1.31h-.94l.02,9.49.93.06v-4.19c-.01-.1.03-.19.1-.26.07-.07.17-.1.27-.1.53.03,1.07.06,1.61.1.19.01.33.17.33.36l.02,4.25ZM41.44,10.94h0s0,0,0,0ZM43.38,6.85h0,0ZM43.3,6.77h0s0,0,0,0ZM41.86,5.35h0s0,0,0,0ZM41.78,5.27h0,0ZM41.41,1.23h0s0,0,0,0ZM43.71,1.22h0s0,0,0,0ZM40.48,1.22h0s0,0,0,0Z"/>
                  <path class="cls-6" d="M51.33,3.25c0-.69-.2-1.25-.6-1.65-.4-.41-1-.61-1.83-.61-.71,0-1.29.16-1.73.49-.45.34-.68.87-.67,1.56l.05,6.9c0,.61.2,1.15.59,1.6.38.44.95.77,1.76.99.36.1.68.15.97.15.3,0,.56-.06.78-.18.46-.24.7-.77.7-1.56V3.25ZM49.99,10.78c0,.29-.07.5-.22.61-.14.11-.4.12-.76.02-.34-.09-.62-.24-.81-.44-.19-.19-.28-.45-.28-.78l-.04-7.19c0-.28.07-.49.23-.64.16-.15.43-.23.8-.22.35,0,.61.09.8.25.18.15.27.41.27.75l.02,7.64Z"/>
                  <path class="cls-6" d="M49.86,12.91c-.3,0-.64-.05-1.03-.16-.84-.24-1.46-.59-1.86-1.06-.42-.49-.64-1.08-.64-1.75l-.05-6.9c0-.77.25-1.36.76-1.74.47-.35,1.09-.53,1.84-.53h.02c.89,0,1.54.23,1.99.68.44.45.66,1.06.66,1.81v7.7c0,.88-.27,1.47-.81,1.76-.25.13-.55.2-.88.2ZM48.88,1.2c-.65,0-1.18.15-1.58.44-.39.29-.59.76-.58,1.39l.05,6.9c0,.56.18,1.05.54,1.46.35.41.89.71,1.65.92.69.2,1.21.19,1.58,0,.38-.2.58-.66.58-1.37V3.25c0-.63-.19-1.14-.54-1.5-.36-.37-.9-.54-1.67-.55h-.02ZM49.45,11.7c-.14,0-.31-.03-.5-.08-.38-.1-.69-.27-.92-.5-.23-.24-.34-.54-.35-.93l-.04-7.19c0-.34.1-.61.3-.8.2-.19.54-.28.96-.28.4,0,.71.11.94.31.23.2.34.51.34.92l.02,7.64c0,.36-.1.63-.3.78-.12.09-.27.13-.46.13ZM48.84,2.35c-.28,0-.49.05-.59.16-.11.11-.17.26-.17.48l.04,7.19c0,.27.07.47.22.62.17.17.41.3.71.38.41.11.54.04.57.02.11-.08.13-.28.13-.43l-.02-7.64c0-.28-.06-.48-.19-.58-.15-.13-.36-.19-.66-.2-.02,0-.04,0-.05,0Z"/>
                </g>
              </g>
            </g>
            <path class="cls-7" d="M30.15,6.46l2.27-5.41c.05-.11.03-.24-.03-.34-.07-.1-.18-.16-.3-.16h-1.17c-.15,0-.28.09-.34.23l-1.41,3.67V.91c.01-.1-.03-.19-.09-.26-.07-.07-.16-.11-.26-.11h-1.09c-.2,0-.36.16-.36.36l-.02,11.5c0,.11.05.22.15.29.06.05.14.07.22.07.04,0,.07,0,.11-.02l1.07-.33c.15-.05.25-.18.25-.34v-3.77c.7,1.18,1.77,2.99,1.99,3.37.08.14.24.21.4.17l1.27-.31c.11-.03.21-.11.25-.21.04-.11.03-.23-.03-.33l-2.86-4.54Z"/>
            <path class="cls-7" d="M38.72.58h-.87c-.15,0-.29.1-.34.25l-1.86,5.48.02-5.37c0-.1-.04-.19-.11-.26-.07-.07-.16-.11-.26-.11h-1.09c-.2,0-.36.16-.36.36l-.05,9.92c0,.1.04.2.12.27.07.06.15.09.24.09.02,0,.03,0,.05,0l.98-.13c.13-.02.24-.11.29-.23.42-1.15,1.17-3.22,1.77-4.88v4.61c0,.1.03.19.1.26.07.07.16.11.26.11h1.1c.2,0,.36-.16.36-.36V.94c0-.2-.16-.36-.35-.36"/>
            <path class="cls-7" d="M45,.59h-1.09c-.1,0-.19.04-.26.11-.07.07-.11.16-.11.26l.02,4.12c-.48-.03-.96-.06-1.43-.08V.95c-.01-.2-.18-.36-.37-.36h-1.09c-.1,0-.19.04-.26.11-.07.07-.11.16-.11.26l.03,9.64c0,.19.15.35.34.36l1.1.07c.1,0,.2-.03.27-.1.07-.07.11-.16.11-.26v-4.19c.46.02.94.05,1.42.09l.02,4.24c0,.17.12.31.28.35l1.09.26s.06,0,.08,0c.08,0,.16-.03.22-.08.09-.07.14-.17.14-.28l-.06-10.12c0-.2-.16-.36-.36-.36"/>
            <path class="cls-7" d="M51.83,2.97c0-.75-.22-1.36-.67-1.81-.44-.45-1.09-.68-1.98-.68-.76,0-1.39.18-1.87.53-.51.38-.77.97-.76,1.74l.05,6.9c0,.67.22,1.25.64,1.75.41.48,1.02.82,1.86,1.06.39.11.72.16,1.03.16.34,0,.63-.07.88-.2.54-.28.81-.88.81-1.76V2.97ZM50.04,10.5h0c0,.15-.02.35-.13.43-.03.02-.16.09-.57-.02-.3-.08-.54-.21-.71-.38-.15-.15-.22-.35-.22-.63l-.04-7.19c0-.22.05-.37.16-.48.11-.1.31-.16.59-.16.02,0,.04,0,.05,0,.3,0,.51.07.66.2.13.11.19.31.19.58l.02,7.64Z"/>
            <path class="cls-11" d="M49.78,11.73c-.26,0-.5-.06-.61-.09-.47-.12-.86-.32-1.15-.6-.31-.3-.47-.7-.48-1.19l-.05-7.19c0-.45.14-.81.44-1.07.28-.25.69-.38,1.21-.38.03,0,.05,0,.08,0,.51.01.92.14,1.23.4.33.27.5.67.5,1.2l.02,7.64c0,.61-.26.92-.47,1.08-.19.14-.43.21-.72.21ZM49.15,1.28c-.51,0-.9.12-1.16.36-.27.25-.41.59-.41,1.01l.05,7.19c0,.46.15.84.45,1.13.28.27.65.47,1.11.58.11.03.34.09.6.09.27,0,.5-.06.67-.19.2-.15.44-.44.44-1.02l-.02-7.64h0c0-.5-.16-.89-.47-1.14-.3-.24-.69-.37-1.18-.38-.03,0-.05,0-.08,0Z"/>
            <path class="cls-11" d="M28.26,11.73s-.04-.02-.04-.04V1.4s.02-.04.04-.04.04.02.04.04v10.29s-.02.04-.04.04Z"/>
            <path class="cls-11" d="M29.26,6.41h-.95s-.04-.02-.04-.04.02-.04.04-.04h.92l2.06-5s.03-.03.05-.02c.02,0,.03.03.02.05l-2.07,5.03s-.02.02-.04.02Z"/>
            <path class="cls-11" d="M31.98,11.02s-.03,0-.03-.02l-2.72-4.61s0-.04.01-.05c.02-.01.04,0,.05.01l2.72,4.61s0,.04-.01.05c0,0-.01,0-.02,0Z"/>
            <path class="cls-11" d="M34.82,10.25s0,0,0,0c-.02,0-.03-.02-.03-.04V1.52s.02-.04.04-.04.04.02.04.04v8.49l3.3-8.5s.03-.03.04-.02c.02,0,.03.02.03.04v8.69s-.02.04-.04.04-.04-.02-.04-.04V1.72l-3.3,8.5s-.02.03-.04.03Z"/>
            <path class="cls-11" d="M41.27,10.25s-.04-.02-.04-.04V1.28s.02-.04.04-.04.04.02.04.04v8.93s-.02.04-.04.04Z"/>
            <path class="cls-11" d="M44.52,10.66s-.04-.02-.04-.04V1.28s.02-.04.04-.04.04.02.04.04v9.34s-.02.04-.04.04Z"/>
            <path class="cls-11" d="M44.46,5.81h0l-3.02-.18s-.04-.02-.04-.04c0-.02.02-.04.04-.04h0l3.02.18s.04.02.04.04c0,.02-.02.04-.04.04Z"/>
          </g>
          <g>
            <polygon class="cls-10" points="18.41 9.03 27.62 8.66 26.69 3.06 17.6 3.2 18.41 9.03"/>
            <polygon class="cls-9" points="18.41 9.03 18.12 6.95 17.88 5.22 17.6 3.2 17.16 3.66 17.44 5.67 17.68 7.41 17.97 9.49 27.17 9.12 27.62 8.66 18.41 9.03"/>
            <polygon class="cls-5" points="21.1 4.92 20.87 5.16 21.61 5.13 21.84 4.89 21.1 4.92"/>
            <polygon class="cls-5" points="20.19 4.96 19.45 4.99 19.41 4.24 19.18 4.47 19.21 5.23 19.96 5.2 20.08 7.87 20.98 7.84 21.22 7.6 20.31 7.64 20.19 4.96"/>
            <polygon class="cls-3" points="21.81 4.14 21.84 4.89 21.1 4.92 21.22 7.6 20.31 7.64 20.19 4.96 19.45 4.99 19.41 4.24 21.81 4.14"/>
            <path class="cls-5" d="M23.78,4.03s-.1,0-.14.02c-.85.14-1.47.99-1.4,1.96.04.5.25.95.59,1.28.34.33.78.49,1.23.46.93-.06,1.63-.95,1.55-1.97-.04-.5-.25-.96-.59-1.29-.34-.33-.78-.49-1.23-.46M24.67,5.84c.04.52-.28.84-.62.9-.02,0-.04,0-.06,0-.19.01-.38-.06-.53-.19-.12-.1-.26-.3-.28-.62-.04-.56.32-.89.69-.91.19-.01.38.06.53.19.12.11.26.3.28.62"/>
            <path class="cls-3" d="M24.02,4.04s-.09,0-.14.02c-.83.14-1.43.94-1.37,1.87.03.47.23.91.57,1.22.33.31.75.46,1.19.43.9-.06,1.58-.9,1.51-1.88-.03-.47-.24-.91-.57-1.22-.33-.31-.76-.47-1.19-.44M24.88,5.76c.04.5-.28.8-.61.86-.02,0-.04,0-.06,0-.18.01-.37-.05-.51-.18-.11-.1-.25-.28-.27-.59-.04-.53.32-.85.67-.87.18-.01.37.05.51.18.11.1.25.28.27.59"/>
          </g>
          <g>
            <polygon class="cls-7" points="7.82 12.49 6.66 14.51 5.71 14.02 7.82 12.49"/>
            <polygon class="cls-3" points="6.83 12.45 4.04 14.18 3.42 13.02 6.83 12.45"/>
          </g>
        </g>
      </g>
    </g>
  </g>
</svg>