<?xml version="1.0" encoding="UTF-8"?>
<svg xmlns="http://www.w3.org/2000/svg" xmlns:xlink="http://www.w3.org/1999/xlink" viewBox="0 0 36.79 23.89">
  <defs>
    <style>
      .cls-1 {
        clip-path: url(#clippath);
      }

      .cls-2 {
        fill: none;
      }

      .cls-2, .cls-3, .cls-4, .cls-5, .cls-6, .cls-7, .cls-8, .cls-9, .cls-10, .cls-11 {
        stroke-width: 0px;
      }

      .cls-12 {
        clip-path: url(#clippath-1);
      }

      .cls-13 {
        clip-path: url(#clippath-4);
      }

      .cls-14 {
        clip-path: url(#clippath-3);
      }

      .cls-15 {
        clip-path: url(#clippath-2);
      }

      .cls-16 {
        clip-path: url(#clippath-7);
      }

      .cls-17 {
        clip-path: url(#clippath-6);
      }

      .cls-18 {
        clip-path: url(#clippath-5);
      }

      .cls-19 {
        opacity: .97;
      }

      .cls-20 {
        isolation: isolate;
      }

      .cls-3 {
        fill: #633876;
      }

      .cls-4 {
        fill: #2d6d6e;
      }

      .cls-5 {
        fill: #41224b;
      }

      .cls-6 {
        fill: #1d1d1b;
      }

      .cls-7 {
        fill: #e5007e;
      }

      .cls-8 {
        fill: #2fb6bc;
      }

      .cls-9 {
        fill: #9f948c;
      }

      .cls-10 {
        fill: #fdebdb;
      }

      .cls-11 {
        fill: #fff;
      }

      .cls-21 {
        mix-blend-mode: multiply;
        opacity: .7;
      }
    </style>
    <clipPath id="clippath">
      <rect class="cls-2" x="2.4" y="1.3" width="9.03" height="9.89"/>
    </clipPath>
    <clipPath id="clippath-1">
      <rect class="cls-2" x="2.4" y="1.3" width="9.03" height="9.89"/>
    </clipPath>
    <clipPath id="clippath-2">
      <rect class="cls-2" x="10.96" y=".31" width="8.06" height="9.76"/>
    </clipPath>
    <clipPath id="clippath-3">
      <rect class="cls-2" x="10.96" y=".31" width="8.06" height="9.76"/>
    </clipPath>
    <clipPath id="clippath-4">
      <rect class="cls-2" x="29.15" y="8.69" width="5.15" height="14.28"/>
    </clipPath>
    <clipPath id="clippath-5">
      <rect class="cls-2" x="29.15" y="8.69" width="5.15" height="14.28"/>
    </clipPath>
    <clipPath id="clippath-6">
      <rect class="cls-2" x="5.29" y="11.53" width="24.48" height="12.28"/>
    </clipPath>
    <clipPath id="clippath-7">
      <rect class="cls-2" x="5.29" y="11.53" width="24.48" height="12.28"/>
    </clipPath>
  </defs>
  <g class="cls-20">
    <g id="_Слой_2" data-name="Слой 2">
      <g id="_Слой_1-2" data-name="Слой 1">
        <g>
          <g>
            <path class="cls-8" d="M24,7.4c.14-.05.29-.03.41.07l11.8,9.6c.25.2.17.59-.13.7l-22.31,5.79c-.37.1-.67-.3-.45-.62l10.48-15.37c.05-.08.13-.13.21-.16"/>
            <path class="cls-4" d="M36.35,17.31s0,.02,0,.03c0,.01,0,.03,0,.04,0,.02,0,.03,0,.05,0,.01,0,.03,0,.04,0,0,0,.01,0,.02,0,.02-.01.04-.02.06,0,0,0,0,0,0-.01.02-.02.04-.04.06,0,0,0,0-.01.01-.01.02-.03.03-.05.05,0,0,0,0,0,0-.02.02-.04.03-.06.04,0,0-.01,0-.02,0-.02.01-.05.02-.07.03l-22.31,5.79c-.23.06-.43-.07-.5-.26l.11.32c.07.18.27.32.5.26l22.31-5.79s.05-.02.07-.03c0,0,.01,0,.02,0,.02-.01.04-.03.06-.04,0,0,0,0,0,0,.02-.02.03-.03.05-.05,0,0,0,0,.01-.01.01-.02.03-.04.04-.06,0,0,0,0,0,0,0-.02.02-.04.02-.06,0,0,0-.01,0-.02,0,0,0,0,0-.01,0,0,0-.02,0-.03,0-.02,0-.03,0-.05,0,0,0,0,0-.01,0-.01,0-.02,0-.03,0-.01,0-.02,0-.03,0,0,0,0,0,0,0-.02,0-.04-.02-.06l-.11-.32s.01.05.02.07"/>
          </g>
          <g>
            <polygon class="cls-7" points="32.43 5.52 33.46 3.43 34.43 3.86 32.43 5.52"/>
            <polygon class="cls-8" points="33.42 5.49 36.09 3.58 36.79 4.7 33.42 5.49"/>
          </g>
          <g>
            <path class="cls-3" d="M.4,6.51l20.26-3.06c.33-.05.58.38.39.68l-9.71,14.89c-.05.07-.11.12-.19.14-.13.04-.28,0-.38-.12L.27,7.2c-.21-.24-.13-.61.13-.69"/>
            <path class="cls-5" d="M21.11,3.89s0,.05,0,.07c0,0,0,.01,0,.02,0,.02,0,.04-.02.06,0,0,0,.01,0,.02,0,.02-.02.05-.04.07l-9.71,14.89c-.05.07-.11.12-.19.14-.13.04-.28,0-.38-.12L.27,7.2c-.08-.09-.12-.2-.12-.31v.55c0,.11.04.22.12.31l10.49,11.84c.11.12.25.16.38.12.07-.02.14-.07.19-.14l9.71-14.89s.03-.05.04-.07c0,0,0-.01,0-.02,0-.02.01-.04.02-.06,0,0,0,0,0-.01,0,0,0,0,0,0,0-.02,0-.05,0-.07v-.55Z"/>
          </g>
          <g>
            <g class="cls-21">
              <g class="cls-1">
                <g class="cls-12">
                  <polygon class="cls-6" points="6.75 1.77 7.16 4.83 6.35 4.94 5.94 1.88 2.4 2.35 3.58 11.19 7.12 10.72 6.71 7.65 7.52 7.54 7.93 10.61 11.43 10.14 10.25 1.3 6.75 1.77"/>
                </g>
              </g>
            </g>
            <g class="cls-21">
              <g class="cls-15">
                <g class="cls-14">
                  <polygon class="cls-6" points="18.65 6.45 15.24 6.9 15.19 6.54 17.52 6.23 17.16 3.52 14.83 3.83 14.78 3.47 18.19 3.01 17.83 .31 10.96 1.23 12.14 10.07 19.01 9.16 18.65 6.45"/>
                </g>
              </g>
            </g>
            <polygon class="cls-8" points="6.95 1.46 7.36 4.52 6.55 4.63 6.14 1.56 2.6 2.04 3.78 10.88 7.32 10.41 6.91 7.34 7.72 7.23 8.13 10.3 11.63 9.83 10.45 .99 6.95 1.46"/>
            <polygon class="cls-8" points="18.85 6.13 15.44 6.59 15.39 6.23 17.72 5.92 17.36 3.21 15.03 3.52 14.98 3.15 18.39 2.7 18.03 0 11.15 .92 12.33 9.76 19.21 8.84 18.85 6.13"/>
            <path class="cls-11" d="M4.14,10.4v-.11s-1.07-7.9-1.07-7.9l2.7-.36.41,3.06,1.65-.22-.41-3.06,2.66-.35v.11s1.07,7.89,1.07,7.89l-2.66.35-.41-3.07-1.65.22.41,3.07-2.7.36ZM3.31,2.59l1.01,7.58,2.28-.3-.41-3.07,2.08-.28.41,3.07,2.24-.3-1.01-7.58-2.24.3.41,3.06-2.07.28-.41-3.06-2.28.3Z"/>
            <path class="cls-11" d="M12.7,9.28v-.11s-1.07-7.89-1.07-7.89h.11s5.93-.8,5.93-.8l.25,1.86-3.41.46.16,1.2,2.33-.31.25,1.87-2.33.31.16,1.2,3.41-.46.25,1.87h-.11s-5.93.8-5.93.8ZM11.87,1.47l1.01,7.58,5.61-.75-.19-1.45-3.41.46-.22-1.63,2.33-.31-.19-1.45-2.33.31-.22-1.63,3.41-.46-.19-1.43-5.61.75Z"/>
          </g>
          <g>
            <polygon class="cls-10" points="19.94 9.16 29.88 9.98 29.63 3.77 19.85 2.71 19.94 9.16"/>
            <polygon class="cls-9" points="19.94 9.16 19.91 6.86 19.88 4.94 19.85 2.71 19.31 3.15 19.34 5.38 19.37 7.3 19.4 9.6 29.34 10.42 29.88 9.98 19.94 9.16"/>
            <polygon class="cls-5" points="23.38 5.05 23.1 5.28 23.9 5.34 24.18 5.12 23.38 5.05"/>
            <polygon class="cls-5" points="22.4 4.97 21.59 4.91 21.66 4.08 21.38 4.31 21.31 5.13 22.12 5.2 21.88 8.13 22.86 8.21 23.14 7.98 22.16 7.9 22.4 4.97"/>
            <polygon class="cls-3" points="24.25 4.29 24.18 5.12 23.38 5.05 23.14 7.98 22.16 7.9 22.4 4.97 21.59 4.91 21.66 4.08 24.25 4.29"/>
            <path class="cls-5" d="M26.38,4.43c-.05,0-.11,0-.16,0-.94.04-1.72.88-1.77,1.95-.03.55.14,1.07.46,1.47.32.4.77.64,1.26.66,1.01.06,1.88-.81,1.94-1.94.03-.55-.14-1.07-.46-1.48-.33-.4-.77-.64-1.26-.67M27.09,6.52c-.03.58-.42.88-.79.9-.02,0-.05,0-.07,0-.21-.01-.4-.11-.54-.28-.11-.13-.24-.36-.22-.71.03-.62.47-.93.86-.9.2.01.4.11.54.28.11.13.24.36.22.71"/>
            <path class="cls-3" d="M26.64,4.48c-.05,0-.1,0-.15,0-.91.04-1.67.83-1.72,1.85-.03.52.13,1.02.45,1.4.31.38.75.6,1.22.63.98.05,1.82-.77,1.88-1.84.03-.52-.13-1.02-.45-1.4-.32-.38-.75-.61-1.22-.63M27.32,6.46c-.03.55-.41.84-.77.85-.02,0-.04,0-.07,0-.2-.01-.39-.11-.53-.26-.11-.12-.23-.34-.21-.67.03-.58.45-.88.83-.86.2.01.39.11.53.26.11.12.23.34.21.68"/>
          </g>
          <g>
            <polygon class="cls-7" points="4.4 17.36 3.24 19.39 2.29 18.89 4.4 17.36"/>
            <polygon class="cls-3" points="3.41 17.33 .62 19.06 0 17.9 3.41 17.33"/>
          </g>
          <g>
            <g class="cls-19">
              <g class="cls-13">
                <g class="cls-18">
                  <path class="cls-5" d="M34.3,9.36l-2.41,9.77c-.03.11-.14.18-.25.16l-1.22-.23c-.11-.02-.19-.12-.17-.23l1.45-9.95c.02-.12.13-.2.25-.18l2.18.41c.12.02.2.14.17.25M31.85,20.65l-.43,2.15c-.02.11-.14.19-.25.17l-1.85-.35c-.12-.02-.19-.13-.17-.24l.43-2.15c.02-.11.14-.19.25-.16l1.85.35c.12.02.19.13.17.24"/>
                </g>
              </g>
            </g>
            <path class="cls-3" d="M34.61,9.18l-2.41,9.77c-.03.11-.14.18-.25.16l-1.22-.23c-.11-.02-.19-.12-.17-.23l1.45-9.95c.02-.12.13-.2.25-.18l2.18.41c.12.02.2.14.17.25M32.16,20.48l-.43,2.15c-.02.11-.14.19-.25.16l-1.85-.35c-.12-.02-.19-.13-.17-.24l.43-2.15c.02-.11.14-.19.25-.16l1.85.35c.12.02.19.13.17.24"/>
          </g>
          <g>
            <g class="cls-21">
              <g class="cls-17">
                <g class="cls-16">
                  <path class="cls-6" d="M10.76,22.16l-2.89-4.57s-.03-.09-.01-.13l2.29-5.45c.04-.09-.03-.19-.13-.19h-1.17c-.06,0-.11.04-.13.09l-1.57,4.09c-.06.14-.27.1-.27-.05v-3.99c.01-.08-.05-.14-.13-.14h-1.09c-.08,0-.14.06-.14.14l-.02,11.5c0,.09.09.16.18.13l1.07-.33c.06-.02.1-.07.1-.13v-4.07c.01-.14.2-.19.27-.07.66,1.13,1.86,3.18,2.13,3.63.03.05.09.08.15.06l1.27-.31c.09-.02.14-.13.09-.21"/>
                  <path class="cls-6" d="M5.65,23.81c-.08,0-.15-.02-.22-.07-.09-.07-.15-.18-.15-.29l.02-11.5c0-.2.16-.36.36-.36h1.09c.1,0,.19.04.26.11.07.07.11.16.1.26v3.54s1.4-3.67,1.4-3.67c.05-.14.19-.23.34-.23h1.17c.12,0,.23.06.3.16.07.1.08.23.03.34l-2.27,5.41,2.86,4.54c.06.1.07.22.03.33-.04.11-.14.19-.25.22l-1.27.3c-.15.04-.31-.03-.39-.17-.25-.42-1.3-2.21-1.98-3.37v3.78c-.01.16-.11.29-.26.34l-1.07.33s-.07.02-.1.02ZM5.75,12.04l-.02,11.31.91-.28v-4.02c.01-.17.12-.3.28-.35.16-.04.32.02.41.17.64,1.1,1.78,3.04,2.09,3.57l1.1-.26-2.83-4.48c-.06-.1-.07-.22-.03-.33l2.24-5.34h-.99l-1.55,4.04c-.06.17-.23.25-.4.23-.17-.03-.29-.18-.29-.36v-3.91s-.91,0-.91,0ZM9.36,22.46h0,0ZM6.67,11.96h0s0,0,0,0ZM9.95,11.92h0s0,0,0,0Z"/>
                  <path class="cls-6" d="M16.8,21.63v-9.64c0-.08-.06-.14-.13-.14h-.87c-.06,0-.11.04-.13.09l-2.02,5.96c-.05.15-.27.11-.27-.05l.02-5.87c0-.08-.06-.14-.14-.14h-1.09c-.08,0-.14.06-.14.14l-.05,9.92c0,.08.07.15.16.14l.98-.13c.05,0,.09-.04.11-.09.18-.51,1.22-3.35,1.93-5.33.05-.15.28-.1.27.06h0s0,.02,0,.02v5.06c0,.08.05.14.13.14h1.1c.08,0,.14-.06.14-.14"/>
                  <path class="cls-6" d="M12.12,22.27c-.09,0-.17-.03-.24-.09-.08-.07-.12-.17-.12-.27l.05-9.92c0-.2.16-.36.36-.36h1.09c.1,0,.19.04.26.11.07.07.1.16.1.26l-.02,5.37,1.86-5.48c.05-.15.18-.24.34-.24h.87c.2,0,.36.16.36.36v9.64c0,.2-.17.36-.37.36h-1.1c-.2,0-.36-.16-.36-.36v-4.61c-.69,1.93-1.59,4.41-1.76,4.88-.05.13-.16.22-.29.23l-.98.13s-.03,0-.05,0ZM12.25,12.07l-.05,9.74.84-.11c.22-.62,1.22-3.36,1.91-5.28.06-.17.24-.26.41-.23.18.04.3.2.29.38v4.98s.93,0,.93,0v-9.48s-.72,0-.72,0l-2,5.9c-.06.17-.22.27-.4.24-.18-.03-.3-.18-.3-.36l.02-5.79h-.92ZM15.87,12.01h0s0,0,0,0ZM13.17,11.99h0s0,0,0,0ZM12.25,11.99h0s0,0,0,0Z"/>
                  <path class="cls-6" d="M23.13,22.12l-.06-10.12c0-.08-.06-.14-.14-.14h-1.09c-.08,0-.14.06-.14.14l.02,4.21c0,.08-.07.14-.15.14-.53-.03-1.06-.06-1.59-.09-.07,0-.13-.06-.13-.14v-4.12c-.01-.08-.08-.14-.15-.14h-1.09c-.08,0-.14.06-.14.14l.03,9.64c0,.07.06.13.13.14l1.1.07c.08,0,.15-.06.15-.14v-4.27c-.02-.08.05-.14.13-.14.53.03,1.07.06,1.6.1.07,0,.13.07.13.14l.02,4.32c0,.06.04.12.11.14l1.09.26c.09.02.17-.05.17-.14"/>
                  <path class="cls-6" d="M22.99,22.48s-.05,0-.08,0l-1.09-.26c-.16-.04-.28-.18-.28-.35l-.02-4.24c-.48-.03-.96-.06-1.43-.09v4.19c.01.1-.03.2-.1.26-.07.07-.17.1-.27.1l-1.1-.08c-.19-.01-.34-.17-.34-.36l-.03-9.64c0-.2.16-.36.36-.36h1.09c.2,0,.36.16.36.36v4.04c.49.02.97.05,1.45.08l-.02-4.12c0-.1.04-.19.1-.26.07-.07.16-.11.26-.11h1.09c.2,0,.36.16.36.36l.06,10.12c0,.11-.05.21-.14.28-.06.05-.14.08-.22.08ZM21.98,21.79l.93.22-.06-9.94h-.92l.02,4.13c0,.1-.04.19-.11.26-.07.07-.15.1-.27.1-.53-.03-1.06-.06-1.59-.09-.19,0-.34-.17-.34-.36v-4.04h-.94l.03,9.49.93.06v-4.19c-.02-.1.02-.19.1-.26.07-.07.16-.1.27-.1.53.03,1.07.06,1.61.1.19.01.33.17.33.36l.02,4.26ZM21.59,17.62h0,0ZM21.52,17.54h0s0,0,0,0ZM20.08,17.44h0s0,0,0,0ZM21.51,16.21h0s0,0,0,0ZM20,16.04h0,0ZM22.85,12h0s0,0,0,0ZM21.93,11.99h0s0,0,0,0Z"/>
                  <path class="cls-6" d="M29.55,14.02c0-.69-.2-1.25-.6-1.65-.4-.41-1-.61-1.83-.61-.71,0-1.29.16-1.73.49-.45.34-.68.87-.67,1.56l.05,6.9c0,.61.2,1.15.59,1.6.38.44.95.77,1.76.99.36.1.68.15.97.15.3,0,.56-.06.78-.18.46-.24.7-.77.7-1.56v-7.7ZM28.2,21.55c0,.29-.07.5-.22.61-.14.11-.4.12-.76.02-.34-.09-.62-.24-.81-.44-.19-.19-.28-.45-.28-.78l-.04-7.19c0-.28.07-.49.23-.64.16-.15.43-.23.8-.22.35,0,.61.09.8.25.18.15.27.41.27.75l.02,7.64Z"/>
                  <path class="cls-6" d="M28.07,23.68c-.3,0-.64-.05-1.03-.16-.84-.24-1.45-.59-1.86-1.06-.42-.49-.64-1.08-.64-1.75l-.05-6.9c0-.77.25-1.36.76-1.74.47-.36,1.1-.52,1.87-.53.89,0,1.54.23,1.99.68.44.45.66,1.06.66,1.81v7.7c0,.88-.27,1.47-.81,1.76-.25.13-.55.2-.88.2ZM27.1,11.97c-.66,0-1.19.15-1.58.45-.39.29-.59.76-.58,1.39l.05,6.9c0,.56.19,1.05.54,1.46.35.41.89.71,1.65.93.7.2,1.21.2,1.58,0,.38-.2.58-.66.58-1.37v-7.7c0-.63-.19-1.14-.54-1.5-.36-.37-.9-.54-1.67-.55h-.02ZM27.66,22.47c-.14,0-.31-.03-.5-.08-.38-.1-.69-.27-.92-.5-.23-.24-.35-.55-.35-.93l-.04-7.19c0-.34.1-.61.3-.8.2-.19.52-.3.96-.28.4,0,.71.11.94.31.23.2.34.5.35.92l.02,7.64c0,.36-.1.63-.3.78-.12.09-.27.13-.45.13ZM27.05,13.12c-.28,0-.48.05-.59.16-.11.11-.17.26-.17.48l.04,7.19c0,.27.07.47.22.62.17.17.41.3.71.38.41.11.54.04.57.02.11-.08.13-.28.13-.43l-.02-7.64c0-.28-.07-.48-.19-.58-.15-.13-.37-.19-.66-.2h-.05Z"/>
                </g>
              </g>
            </g>
            <path class="cls-7" d="M8.36,17.23l2.27-5.41c.05-.11.03-.24-.03-.34-.07-.1-.18-.16-.3-.16h-1.17c-.15,0-.28.09-.34.23l-1.41,3.67v-3.54c.01-.1-.03-.19-.09-.26-.07-.07-.16-.11-.26-.11h-1.09c-.2,0-.36.16-.36.36l-.02,11.5c0,.11.05.22.15.29.06.05.14.07.22.07.04,0,.07,0,.11-.02l1.07-.33c.15-.05.25-.18.25-.34v-3.77c.7,1.18,1.77,2.99,1.99,3.37.08.14.24.21.4.17l1.27-.31c.11-.03.21-.11.25-.21.04-.11.03-.23-.03-.33l-2.86-4.54Z"/>
            <path class="cls-7" d="M16.94,11.35h-.87c-.15,0-.29.1-.34.25l-1.86,5.48.02-5.37c0-.1-.04-.19-.11-.26-.07-.07-.16-.11-.26-.11h-1.09c-.2,0-.36.16-.36.36l-.05,9.92c0,.1.04.2.12.27.07.06.15.09.24.09.02,0,.03,0,.05,0l.98-.13c.13-.02.24-.11.29-.23.42-1.15,1.17-3.22,1.77-4.88v4.61c0,.1.03.19.1.26.07.07.16.11.26.11h1.1c.2,0,.36-.16.36-.36v-9.64c0-.2-.16-.36-.35-.36"/>
            <path class="cls-7" d="M23.21,11.36h-1.09c-.1,0-.19.04-.26.11-.07.07-.11.16-.11.26l.02,4.12c-.48-.03-.96-.06-1.43-.08v-4.05c-.01-.2-.18-.36-.37-.36h-1.09c-.1,0-.19.04-.26.11-.07.07-.11.16-.11.26l.03,9.64c0,.19.15.35.34.36l1.1.07c.1,0,.2-.03.27-.1.07-.07.11-.16.11-.26v-4.19c.46.02.94.05,1.42.09l.02,4.24c0,.17.12.31.28.35l1.09.26s.06,0,.08,0c.08,0,.16-.03.22-.08.09-.07.14-.17.14-.28l-.06-10.12c0-.2-.16-.36-.36-.36"/>
            <path class="cls-7" d="M30.04,13.75c0-.75-.22-1.36-.67-1.81-.44-.45-1.09-.68-1.98-.68-.76,0-1.39.18-1.87.53-.51.38-.77.97-.76,1.74l.05,6.9c0,.67.22,1.25.64,1.75.41.48,1.02.82,1.86,1.06.39.11.72.16,1.03.16.34,0,.63-.07.88-.2.54-.28.81-.88.81-1.76v-7.7ZM28.26,21.28h0c0,.15-.02.35-.13.43-.03.02-.16.09-.57-.02-.3-.08-.54-.21-.71-.38-.15-.15-.22-.35-.22-.63l-.04-7.19c0-.22.05-.37.16-.48.11-.1.31-.16.59-.16.02,0,.04,0,.05,0,.3,0,.51.07.66.2.13.11.19.31.19.58l.02,7.64Z"/>
            <path class="cls-11" d="M27.99,22.5c-.27,0-.5-.06-.62-.09-.47-.12-.85-.32-1.14-.6-.31-.31-.47-.71-.48-1.19l-.05-7.19c0-.45.14-.81.44-1.07.28-.25.69-.38,1.21-.38h.08c.52.01.92.14,1.23.4.33.27.5.67.5,1.2l.02,7.64c0,.61-.26.92-.47,1.08-.19.14-.43.21-.72.21ZM27.44,12.05h-.08c-.51,0-.9.12-1.16.36-.28.25-.41.59-.41,1.02l.05,7.19c0,.46.15.84.45,1.13.28.27.65.47,1.11.58.11.03.34.08.6.08.27,0,.5-.06.68-.19.2-.15.44-.44.44-1.02l-.02-7.64h0c0-.5-.16-.88-.47-1.14-.3-.24-.69-.37-1.18-.38Z"/>
            <path class="cls-11" d="M6.47,22.5s-.04-.02-.04-.04v-10.29s.02-.04.04-.04.04.02.04.04v10.29s-.02.04-.04.04Z"/>
            <path class="cls-11" d="M7.48,17.18h-.95s-.04-.02-.04-.04.02-.04.04-.04h.92l2.06-5s.03-.03.05-.02c.02,0,.03.03.02.05l-2.07,5.03s-.02.02-.04.02Z"/>
            <path class="cls-11" d="M10.2,21.79s-.03,0-.03-.02l-2.72-4.61s0-.04.01-.05c.02-.01.04,0,.05.01l2.72,4.61s0,.04-.01.05c0,0-.01,0-.02,0Z"/>
            <path class="cls-11" d="M13.04,21.02s0,0,0,0c-.02,0-.03-.02-.03-.04v-8.69s.02-.04.04-.04.04.02.04.04v8.49l3.3-8.5s.03-.03.04-.02c.02,0,.03.02.03.04v8.69s-.02.04-.04.04-.04-.02-.04-.04v-8.49l-3.3,8.5s-.02.03-.04.03Z"/>
            <path class="cls-11" d="M19.48,21.02s-.04-.02-.04-.04v-8.93s.02-.04.04-.04.04.02.04.04v8.93s-.02.04-.04.04Z"/>
            <path class="cls-11" d="M22.73,21.44s-.04-.02-.04-.04v-9.34s.02-.04.04-.04.04.02.04.04v9.34s-.02.04-.04.04Z"/>
            <path class="cls-11" d="M22.67,16.59s0,0,0,0l-3.02-.18s-.04-.02-.04-.04c0-.02.02-.04.04-.04,0,0,0,0,0,0l3.02.18s.04.02.04.04c0,.02-.02.04-.04.04Z"/>
          </g>
        </g>
      </g>
    </g>
  </g>
</svg>