<?xml version="1.0" encoding="utf-8"?>
<!-- Generator: Adobe Illustrator 28.1.0, SVG Export Plug-In . SVG Version: 6.00 Build 0)  -->
<svg version="1.1" id="_Слой_2" xmlns="http://www.w3.org/2000/svg" xmlns:xlink="http://www.w3.org/1999/xlink" x="0px"
	 y="0px" viewBox="0 0 30 19.5" style="enable-background:new 0 0 30 19.5;" xml:space="preserve">
<style type="text/css">
	.st0{fill:#643877;}
	.st1{fill:#C8B6D1;}
	.st2{fill:#FFFFFF;}
	.st3{fill:#F3EBFF;}
</style>
<g id="_Слой_1-2">
	<g>
		<path class="st0" d="M1.4,0h27.3C29.4,0,30,0.6,30,1.4v16.8c0,0.8-0.6,1.4-1.4,1.4H1.4C0.6,19.6,0,19,0,18.2V1.4
			C0,0.6,0.6,0,1.4,0z"/>
		<path class="st1" d="M1.4,5.3h24.1c2,0,3.7,1.7,3.7,3.7v9.4H5.1c-2,0-3.7-1.6-3.7-3.7L1.4,5.3L1.4,5.3z"/>
		<g>
			<g>
				<path class="st2" d="M3,1.5L1.4,4.1v0.1l3.7,1.4c0.1,0,0.2-0.1,0.1-0.1L3,1.5C3.1,1.4,3.1,1.4,3,1.5L3,1.5z"/>
				<path class="st3" d="M5.2,5.8L5.2,5.8L1.4,4.4c-0.1,0-0.1-0.1-0.1-0.1c0-0.1,0-0.1,0-0.2l1.6-2.6C3,1.4,3,1.3,3.1,1.3
					s0.1,0.1,0.2,0.1l2.1,4c0,0.1,0,0.2,0,0.2C5.3,5.7,5.3,5.8,5.2,5.8L5.2,5.8z M1.5,4.1l3.6,1.4l-2-3.9L1.5,4.1L1.5,4.1z M1.5,4.2
					L1.5,4.2L1.5,4.2z"/>
			</g>
			<g>
				<polygon class="st2" points="5,1.9 3.9,1.6 4.8,3.3 				"/>
				<path class="st3" d="M4.9,3.7L3.6,1.5l1.5,0.3L4.9,3.7z M4.1,1.8l0.6,1.1L4.8,2L4.1,1.8z"/>
			</g>
		</g>
		<g>
			<path class="st1" d="M27,0.6c-1.2,0-2.1,0.9-2.1,2.1s0.9,2.1,2.1,2.1s2.1-0.9,2.1-2.1S28.1,0.6,27,0.6z M27,4.6
				c-1,0-1.9-0.8-1.9-1.9s0.8-1.9,1.9-1.9s1.9,0.9,1.9,1.9S28,4.6,27,4.6z"/>
			<path class="st1" d="M27,1.1c-0.9,0-1.6,0.7-1.6,1.6s0.7,1.6,1.6,1.6s1.6-0.7,1.6-1.6S27.9,1.1,27,1.1z M25.8,3.2
				C25.8,3.2,25.8,3.1,25.8,3.2V3c0,0,0-0.1,0.1-0.1h0.7c0,0,0.1,0,0.1,0.1v0.1c0,0,0,0.1-0.1,0.1C26.6,3.2,25.8,3.2,25.8,3.2z
				 M27.4,3.8C27.4,3.8,27.4,3.9,27.4,3.8l-0.9,0.1c0,0-0.1,0-0.1-0.1V3.7c0,0,0-0.1,0.1-0.1h0.9c0,0,0.1,0,0.1,0.1
				C27.4,3.7,27.4,3.8,27.4,3.8z M28,3.1L28,3.1l-0.8,0.1c0,0-0.1,0-0.1-0.1V2.9c0,0,0-0.1,0.1-0.1h0.7c0,0,0.1,0,0.1,0.1
				C28,2.9,28,3.1,28,3.1z M27.9,2.5c-0.2,0-0.3-0.1-0.3-0.3V2.1l0,0l0.3-0.5l0,0l0.3,0.5v0.1C28.2,2.4,28.1,2.6,27.9,2.5L27.9,2.5z
				"/>
		</g>
	</g>
</g>
</svg>
