<?xml version="1.0" encoding="utf-8"?>
<!-- Generator: Adobe Illustrator 28.1.0, SVG Export Plug-In . SVG Version: 6.00 Build 0)  -->
<svg version="1.1" id="_Слой_2" xmlns="http://www.w3.org/2000/svg" xmlns:xlink="http://www.w3.org/1999/xlink" x="0px"
	 y="0px" viewBox="0 0 30 19.5" style="enable-background:new 0 0 30 19.5;" xml:space="preserve">
<style type="text/css">
	.st0{fill:#2CB6BD;}
	.st1{fill:#D3EBEC;}
	.st2{fill:#FFFFFF;}
	.st3{fill:#E9FFFC;}
</style>
<g id="_Слой_1-2_00000132772310319086788000000001738612898018951100_">
	<g>
		<path class="st0" d="M1.4,0h27.3C29.4,0,30,0.6,30,1.4v16.8c0,0.8-0.6,1.4-1.4,1.4H1.4c-0.8,0-1.4-0.6-1.4-1.4V1.4
			C0,0.6,0.6,0,1.4,0z"/>
		<path class="st1" d="M1.4,5.3h24.1c2,0,3.7,1.7,3.7,3.7v9.4H5.1c-2,0-3.7-1.6-3.7-3.7L1.4,5.3C1.4,5.3,1.4,5.3,1.4,5.3z"/>
		<g>
			<path class="st2" d="M25,3.5l2.2,2.2c0,0,0.1,0,0.1,0l2.1-3.4c0-0.1,0-0.2-0.1-0.1L25,3.4C25,3.4,24.9,3.5,25,3.5L25,3.5z"/>
			<path class="st3" d="M27.2,5.8c-0.1,0-0.1,0-0.2-0.1l-2.2-2.2c-0.1-0.1-0.1-0.1-0.1-0.2c0-0.1,0.1-0.1,0.1-0.2L29.3,2
				c0.1,0,0.2,0,0.2,0.1c0.1,0.1,0.1,0.2,0,0.2l-2.1,3.4C27.4,5.8,27.3,5.8,27.2,5.8C27.3,5.8,27.2,5.8,27.2,5.8L27.2,5.8z
				 M25.1,3.5l2.1,2.1l2.1-3.3L25.1,3.5z"/>
		</g>
		<g>
			<polygon class="st2" points="28.1,5.5 28.9,6.3 29,4.4 			"/>
			<path class="st3" d="M29,6.5l-1.1-1L29.1,4L29,6.5L29,6.5z M28.3,5.5L28.8,6l0.1-1.2L28.3,5.5z"/>
		</g>
		<g>
			<path class="st1" d="M3.1,0.6C1.9,0.6,1,1.6,1,2.7s0.9,2.1,2.1,2.1s2.1-0.9,2.1-2.1S4.2,0.6,3.1,0.6z M3.1,4.6
				c-1,0-1.9-0.8-1.9-1.9S2,0.9,3.1,0.9s1.9,0.8,1.9,1.9S4.1,4.6,3.1,4.6z"/>
			<path class="st1" d="M3.1,3.7c0.3,0,0.6-0.2,0.6-0.5H2.4C2.5,3.5,2.8,3.7,3.1,3.7z"/>
			<path class="st1" d="M3.1,1.1c-0.9,0-1.6,0.7-1.6,1.6s0.7,1.6,1.6,1.6s1.6-0.7,1.6-1.6S4,1.1,3.1,1.1z M2,2.5C2,2.5,2,2.5,2,2.5
				c0,0.1-0.1,0.1-0.1,0.1c-0.1,0-0.1-0.1-0.1-0.1v0C1.8,2.2,2,2,2.3,2s0.5,0.2,0.5,0.4v0c0,0.1,0,0.1-0.1,0.1c0,0,0,0,0,0
				c0,0-0.1,0-0.1-0.1c0,0,0,0,0,0c0-0.2-0.2-0.2-0.3-0.2S2,2.3,2,2.5L2,2.5z M3.9,3.1c0,0.5-0.4,0.8-0.8,0.8S2.2,3.5,2.2,3.1V3
				L3.9,3.1L3.9,3.1z M4.3,2.6C4.3,2.6,4.3,2.6,4.3,2.6c-0.1,0-0.1,0-0.1-0.1c0,0,0,0,0,0c0-0.2-0.2-0.2-0.3-0.2
				c-0.2,0-0.3,0.1-0.3,0.2c0,0,0,0,0,0c0,0.1-0.1,0.1-0.1,0.1S3.3,2.5,3.3,2.4v0C3.4,2.2,3.6,2,3.9,2s0.5,0.2,0.5,0.4v0
				C4.4,2.5,4.4,2.5,4.3,2.6L4.3,2.6z"/>
		</g>
	</g>
</g>
</svg>
